<?xml version="1.0" encoding="UTF-8" standalone="no"?>
<!-- Created with Inkscape (http://www.inkscape.org/) -->

<svg
   width="210mm"
   height="297mm"
   viewBox="0 0 210 297"
   version="1.1"
   id="svg1"
   xml:space="preserve"
   sodipodi:docname="title_page_cs310-pr.svg"
   inkscape:export-filename="title_page_cs310_pr.pdf"
   inkscape:export-xdpi="95.955559"
   inkscape:export-ydpi="95.955559"
   inkscape:version="1.4.2 (ebf0e940, 2025-05-08)"
   xmlns:inkscape="http://www.inkscape.org/namespaces/inkscape"
   xmlns:sodipodi="http://sodipodi.sourceforge.net/DTD/sodipodi-0.dtd"
   xmlns="http://www.w3.org/2000/svg"
   xmlns:svg="http://www.w3.org/2000/svg"><sodipodi:namedview
     id="namedview1"
     pagecolor="#ffffff"
     bordercolor="#000000"
     borderopacity="0.25"
     inkscape:showpageshadow="2"
     inkscape:pageopacity="0.0"
     inkscape:pagecheckerboard="0"
     inkscape:deskcolor="#d1d1d1"
     inkscape:document-units="mm"
     inkscape:zoom="0.59840917"
     inkscape:cx="284.08656"
     inkscape:cy="561.48872"
     inkscape:window-width="1280"
     inkscape:window-height="1097"
     inkscape:window-x="0"
     inkscape:window-y="44"
     inkscape:window-maximized="0"
     inkscape:current-layer="layer1" /><defs
     id="defs1" /><g
     inkscape:label="Layer 1"
     inkscape:groupmode="layer"
     id="layer1"><rect
       style="fill:#3b1053;fill-opacity:1;stroke-width:0.271953"
       id="rect2"
       width="210"
       height="215"
       x="0"
       y="0" /><g
       id="g2"
       transform="matrix(0.26458333,0,0,0.26458333,-26.503625,64.891668)"><polygon
         id="SVGID"
         points="750.6,107.5 243.8,107.5 385.8,357.5 497.3,160.3 609.3,357.5 "
         transform="matrix(0.28966186,0,0,0.289663,619.75887,535.25493)"
         style="fill:#3b1053;fill-opacity:1" /><text
         xml:space="preserve"
         style="font-style:normal;font-variant:normal;font-weight:bold;font-stretch:normal;font-size:37.3336px;font-family:P052;-inkscape-font-specification:'P052, Bold';font-variant-ligatures:normal;font-variant-caps:normal;font-variant-numeric:normal;font-variant-east-asian:normal;fill:#000000;fill-opacity:1;stroke-width:1.00001"
         x="155.40863"
         y="669.28021"
         id="text8"><tspan
           sodipodi:role="line"
           id="tspan8"
           x="155.40863"
           y="669.28021"
           style="stroke-width:1.00001">Alex Do</tspan></text><g
         transform="matrix(0.02638238,0,0,-0.02638241,389.69325,401.72676)"
         fill="#000000"
         stroke="none"
         id="g99"
         style="fill:#ffffff;fill-opacity:1"><path
           d="m 3531.1925,11001.354 c -33,-9 -82,-29 -110,-43 -85,-43 -235,-104 -340,-138 -100,-32 -199,-43 -241,-27 -19,7 -33,-6 -103,-88 l -82,-95 h -94 -95 v -140 -140 h -53 c -51,0 -54,1 -70,35 -23,49 -58,63 -101,43 -19,-10 -38,-29 -46,-47 -7,-17 -19,-31 -26,-31 -30,0 -54,-39 -54,-86 0,-37 5,-50 26,-67 15,-12 43,-39 62,-59 46,-50 89,-52 126,-7 14,17 26,35 26,40 0,5 25,9 55,9 h 55 v -130 -130.0004 h -52 c -49,1 -55,3 -73,33 -18,28 -27,32 -67,35 -44,3 -49,1 -66,-27 -10,-17 -34,-41 -53,-54 -29,-19 -34,-29 -37,-68 -2,-34 2,-52 18,-72 12,-15 27,-27 33,-27 7,-1 21,-15 32,-33 17,-28 27,-32 67,-35 42,-3 49,0 69,27 20,28 28,31 76,31 h 53 v -125 -125 h -55 c -30,0 -55,4 -55,9 0,5 -12,23 -26,40 -33,39 -80,42 -112,8 -12,-13 -22,-29 -22,-35 0,-7 -12,-18 -27,-25 -40,-17 -52,-37 -53,-83 0,-43 29,-94 54,-94 7,0 18,-11 25,-24 14,-26 50,-46 83,-46 11,0 35,16 54,35 29,31 38,35 83,35 h 51 v -100 c 0,-95 1,-100 21,-100 18,0 20,-4 15,-25 -11,-43 27,-94 71,-95 28,0 70,-52 79,-95 9,-47 -23,-107 -62,-118 -80,-24 -107,-61 -82,-114 18,-38 52,-53 121,-53 h 58 l -52,-42 c -69,-58 -99,-115 -99,-193 0,-39 8,-76 21,-105 18,-40 22,-43 33,-28 10,13 15,15 24,6 18,-18 14,-28 -10,-28 l -23,-1 24,-19 c 23,-20 20,-20 -703,-20 h -726 l -2,-1922 c -3,-2139 -3,-2131 13,-2278 29,-270 119,-645 208,-869 12,-29 20,-55 18,-57 -1,-2 -25,12 -51,31 -119,84 -271,89 -394.99996,13 -61,-38 -132,-110 -158,-162 -27,-53 -246,-279 -413,-425 -144,-126 -180,-162 -197,-196 -45,-85 -35,-167 40,-320 85,-172 229,-392 359,-543 15,-18 28,-36 28,-41 0,-13 -275,-80 -285,-69 -1,2 -37,69 -78,150 -93,180 -194.000003,345 -224.000003,365 -19,13 -33,13 -83,5 -113.999997,-21 -170.999997,-66 -183.999997,-148 -7,-48 3,-79 93,-298 103.999997,-254 156.999997,-441.00001 164.999997,-582.00001 6,-104 30,-154 94.000003,-195 68,-43 133,-60 252,-66 90,-4 122,-1 225,22 184,41 376,108 525.99996,183 l 137,68 83,-59 c 46,-32 154,-101 240,-152 605,-362 1319,-602.9999989 2009,-678.999999 194,-22 780,-22 980,-1 778,82.0000001 1511,357.999999 2140,804.999999 l 135,95 144,-72 c 232,-117 561,-213 727,-213 158,1 293,49 342,123 20,30 27,56 33,130 15,180 111,482.00001 226,712.00001 48,96 56,185 22,238 -13,20 -43,45 -66,57 -46,23 -155,44 -182,35 -25,-8 -154,-221 -256,-425 -26,-52 -49,-96 -50,-98 -9,-10 -310,62 -329,79 -5,4 30,54 76,111 135,164 339,460 390,563 21,44 22,98 2,162 -19,62 -39,83 -264,293 -167,156 -314,318 -338,373 -55,124 -211,227 -346,229 -81,1 -130,-14 -204,-62 -34,-22 -62,-37 -62,-35 0,3 10,31 23,63 59,144 132,406 172,614 62,327 58,192 62,2416 l 4,2032 h -657 -657 l 34,23 c 18,12 47,42 64,66 27,38 30,51 30,115 0,63 -4,78 -30,118 -17,25 -47,60 -68,76 -37,29 -37,31 -15,37 40,13 58,36 58,77 0,47 -28,78 -69,78 -22,0 -37,9 -55,33 -54,71 -15,187 62,187 31,0 62,42 62,83 0,30 4,37 20,37 19,0 20,7 20,115 v 115 h 45 c 52,0 99,-21 115,-50 8,-15 21,-20 50,-20 h 40 v 180 180 h -40 c -29,0 -42,-5 -50,-21 -18,-32 -71,-59 -117,-59 h -43 v 121 121 l 48,-7 c 54,-8 85,-25 108,-60 13,-20 25,-25 55,-25 h 39 v 180 180.0004 h -37 c -28,0 -45,-8 -70,-32.0004 -26,-25 -43,-32 -88,-36 l -55,-4 v 116.0004 116 h 35 c 44,0 94,-20 119,-49 13,-14 31,-21 58,-21 h 38 v 175 175 h -38 c -29,0 -45,-7 -63,-26 -29,-32 -78,-54 -119,-54 h -30 v 110 110 h -95 -95 l -82,125 c -80,120 -98,141 -98,111 0,-28 -24,-34 -100,-25 -101,12 -301,68 -462,128 -188,70 -203,73 -384,69 -151,-3 -162,-4 -217,-31 -31,-16 -78,-50 -104,-77 l -47,-48 -42,47 c -23,26 -68,60 -101,76 -56,29 -64,30 -208,32 -120,2 -162,-1 -210,-16 z m 342,-51 c 66,-23 114,-59 161,-119 l 32,-43 v -619 -620.0004 l -37,8 c -83,18 -244,7 -403,-25 -230,-47 -446,-72 -625,-72 h -155 v 630.0004 630 h 40 c 107,0 279,53 507,156 78,35 168,70 200,78 89,22 212,20 280,-4 z m 773,1 c 36,-10 130,-42 210,-71 197,-70 348,-110 453,-117 l 87,-6 v -650 -650.0004 l -222,6 c -233,6 -377,22 -623,72 -198,40 -337,43 -417,10 -17,-7 -18,26 -18,603.0004 0,380 4,621 10,637 26,68 100,132 191,165 73,26 237,26 329,1 z m 889,-378 61,-92 v -606.0004 c 0,-333 -3,-605 -7,-604 -5,0 -36,34 -70,74 l -63,73 v 633.0004 c 0,358 4,629 9,624 4,-6 36,-51 70,-102 z m -2749,-516 v -604.0004 l -75,-79 -74,-79 -1,597 v 596.0004 l 72,86 c 40,47 74,86 75,86 2,0 3,-272 3,-603 z m -194,468 c -14,-22 -16,-93 -16,-680.0004 v -655 h 1535 1535 v 664 c 0,433.0004 -3,667.0004 -10,671.0004 -23,14 -7,25 35,25 h 45 v -705.0004 -705 h -1595 -1595 v 705 705.0004 h 41 41 z m 3374,-231 v -96 l -35,22 c -21,13 -59,24 -95,27 l -60,6 v 38 c 0,37 1,39 33,39 46,0 102,17 129,40 13,11 24,19 26,20 1,0 2,-43 2,-96 z m -3670,21 12,-35 h 79 79 v -30 -30 h -79 c -78,0 -79,0 -86,-27 -10,-41 -25,-56 -41,-42 -8,6 -14,19 -14,29 0,11 -12,20 -32,26 -26,8 -34,16 -36,37 -3,27 5,32 51,28 12,-2 17,5 17,24 0,32 18,68 30,60 5,-3 14,-21 20,-40 z m 3670,-461.0004 v -95 l -30,21 c -17,12 -60,27 -95,33 l -65,11 v 37 36 l 65,5 c 43,4 73,12 92,26 15,12 29,22 31,22 1,0 2,-43 2,-96 z m -3666,18 9,-32 h 78 79 v -35 -35 h -79 -79 l -11,-31 c -13,-38 -44,-37 -49,2 -2,19 -11,28 -35,35 -25,7 -32,15 -32,33 0,19 7,27 31,33 24,6 33,15 38,39 8,40 37,36 50,-9 z m 1723,-373 c 59,-18 57,-27 -28,-142 l -79,-107 h -621 -622 l 74,79 74,79 95,-5 c 169,-9 474,23 745,78 182,38 280,42 362,18 z m 378,5 c 33,-3 98,-14 145,-25 230,-50 588,-86 755,-76 l 90,5 68,-79 68,-79 h -623 -623 l -78,99 c -44,55 -79,103 -79,108 0,32 109,65 187,57 17,-2 57,-6 90,-10 z m 1562,-170 c -2,-2 -21,5 -42,16 -25,13 -59,20 -92,20 h -53 v 45 45 h 48 c 32,0 64,8 93,23 l 44,24 3,-85 c 2,-46 1,-86 -1,-88 z m -3662,95 7,-29 h 79 79 v -30 -30 h -79 c -74,0 -80,-2 -87,-22 -15,-50 -54,-60 -54,-14 0,16 -9,24 -32,31 -26,8 -33,15 -33,35 0,21 5,26 33,28 27,3 32,7 32,31 0,59 42,59 55,0 z m 1859,-119 47,-60 h -110 -111 l 52,70 c 36,48 55,66 63,60 7,-6 33,-37 59,-70 z m 1525,-258 c 7,-13 6,-23 -1,-30 -9,-9 -405,-12 -1564,-12 -1367,0 -1553,2 -1564,15 -10,12 -10,18 0,30 11,13 197,15 1566,15 1500,0 1554,-1 1563,-18 z m -145,-127 c -18,-44 -18,-122 0,-157 l 15,-28 h -1435 c -789,0 -1434,2 -1434,4 0,2 7,17 15,32 20,40 19,102 -4,147 l -19,37 h 1439 1438 z m 145,-249 c 9,-11 8,-18 -4,-30 -15,-15 -156,-16 -1559,-16 -1624,0 -1587,-1 -1570,43 6,16 99,17 1564,17 1320,0 1559,-2 1569,-14 z m -601,-116 c 63,-14 99,-48 142,-134 37,-73 40,-121 8,-130 -35,-9 -89,-7 -131,5 -33,9 -38,14 -33,33 l 5,22 -72,-24 c -64,-21 -77,-23 -123,-13 -63,15 -100,46 -163,141 l -49,75 44,13 c 111,32 256,37 372,12 z m -1025,-11 c 39,-9 55,-20 79,-53 34,-47 60,-104 53,-116 -17,-28 -147,-15 -172,16 -10,13 -18,12 -63,-11 -67,-34 -143,-43 -193,-22 -20,9 -37,22 -37,30 0,8 -18,42 -40,76 -22,34 -40,63 -40,65 0,2 33,9 73,16 39,6 79,13 87,15 30,8 206,-3 253,-16 z m 438,4 c 37,-7 131,-94 162,-151 l 18,-32 -27,-10 c -15,-6 -28,-9 -29,-8 -1,2 -13,24 -28,49 -28,50 -114,149 -128,149 -15,0 -10,-19 11,-48 11,-15 23,-48 26,-73 6,-45 6,-47 -18,-42 -14,3 -32,18 -42,38 -21,39 -103,121 -112,112 -3,-3 3,-25 14,-49 11,-24 23,-62 26,-85 6,-42 5,-43 -22,-43 -31,0 -72,25 -72,44 0,7 -13,40 -30,72 -16,32 -30,62 -30,66 0,15 217,24 281,11 z m -1074,-14 c 112,-15 134,-27 181,-99 23,-34 42,-68 42,-76 0,-15 -50,-44 -75,-44 -8,0 -15,8 -15,19 0,38 -129,205 -146,188 -3,-3 3,-25 14,-49 27,-58 39,-147 21,-159 -23,-14 -29,-10 -29,18 0,33 -46,105 -99,158 -23,21 -41,43 -41,47 0,11 54,10 147,-3 z m -415,-21 c 49,-9 64,-18 99,-55 41,-45 78,-114 79,-146 0,-25 -36,-36 -148,-43 -78,-5 -108,-12 -156,-35 -74,-36 -113,-43 -164,-30 -64,18 -109,94 -95,162 8,41 66,104 119,129 76,37 142,42 266,18 z m 258,3 c 0,-10 6,-24 14,-30 17,-14 36,-94 36,-148 0,-35 -1,-35 -22,-21 -13,9 -31,37 -41,63 -9,26 -31,66 -47,90 l -30,43 28,10 c 43,16 62,14 62,-7 z m 2322,-14 c 77,-35 113,-84 113,-153 0,-46 -4,-58 -29,-81 -26,-26 -28,-26 -21,-6 9,30 -24,100 -70,152 -35,38 -73,60 -44,25 8,-10 16,-54 19,-110 4,-85 3,-94 -12,-94 -10,0 -19,6 -19,13 -4,47 -10,69 -24,103 -22,54 -77,134 -92,134 -16,0 -16,-5 3,-60 11,-32 14,-61 9,-103 l -7,-59 -32,6 c -17,4 -36,7 -43,8 -8,1 -9,7 -2,19 11,22 -6,109 -32,161 -11,21 -19,39 -19,41 0,4 41,16 105,31 46,11 144,-2 197,-27 z m -1494,-224 c 34,-3 81,0 105,5 33,9 51,8 82,-3 47,-17 133,-19 170,-5 20,8 40,6 78,-5 65,-19 93,-19 156,2 47,15 52,15 69,0 35,-31 103,-48 192,-46 47,1 97,-3 112,-9 45,-18 153,-26 188,-13 26,8 38,7 63,-6 18,-9 57,-17 87,-18 30,0 71,-9 90,-18 33,-15 -47,-16 -1270,-17 h -1305 l 33,20 c 25,15 50,20 105,20 40,0 100,7 132,17 36,9 105,17 170,18 228,5 279,10 308,29 19,13 42,18 80,16 107,-6 174,-1 208,14 19,8 45,13 59,10 14,-3 53,-8 88,-11 z m 2782,-570 v -348 l -45,84 c -111,206 -200,281 -333,281 -58,0 -75,-4 -113,-28 -90,-58 -166,-159 -246,-329 l -46,-96 -22,54 c -83,202 -189,345 -288,387 -15,7 -58,12 -96,12 -57,0 -74,-4 -112,-28 -93,-60 -181,-181 -253,-346 l -34,-77 -50,104 c -79,167 -150,260 -241,319 -38,24 -55,28 -114,28 -92,0 -151,-32 -223,-119 -50,-60 -129,-202 -168,-300 l -17,-44 -33,75 c -67,155 -139,267 -210,328 -54,47 -87,59 -161,59 -116,1 -188,-51 -287,-209 -29,-47 -69,-121 -87,-164 l -34,-77 -53,111 c -84,176 -175,289 -260,325 -48,20 -156,20 -196,-1 -98,-50 -227,-233 -287,-406 l -12,-33 -54,114 c -86,177 -178,292 -261,327 -51,21 -150,18 -200,-7 -86,-41 -195,-186 -269,-357 l -32,-73 -60,123 c -116,239 -211,328 -348,328 -127,0 -211,-72 -325,-282 l -40,-73 v 343 342 h 2805 2805 z m -2020,-660 v -616 l -25,23 -25,23 v 567 c 0,559 0,568 21,594 11,14 22,26 25,26 2,0 4,-278 4,-617 z m -3250,-5 v -611 l -25,23 -25,23 v 567 c 0,556 0,567 20,588 12,12 23,22 25,22 3,0 5,-275 5,-612 z m 910,10 c 0,-555 -1,-571 -20,-595 l -20,-26 v 613 c 0,612 0,613 20,595 20,-18 20,-31 20,-587 z m 710,-10 -1,-613 -24,30 -25,30 v 559 560 l 22,23 c 12,13 23,23 25,23 2,0 3,-276 3,-612 z m 920,6 v -563 l -25,-28 -24,-28 -1,614 v 614 l 25,-23 25,-23 z m 1620,1 c 0,-559 0,-572 -20,-590 -20,-18 -20,-17 -20,590 0,607 0,608 20,590 20,-18 20,-31 20,-590 z m 710,-7 -1,-613 -24,28 -25,28 v 561 562 l 22,23 c 12,13 23,23 25,23 2,0 3,-276 3,-612 z m -4760,8 v -551 l -25,-30 -24,-30 -1,604 v 604 l 25,-23 25,-23 z m 690,-8 c -1,-532 -2,-601 -15,-584 -13,17 -15,104 -15,591 0,547 2,595 27,595 2,0 3,-271 3,-602 z m 930,7 c 0,-549 0,-562 -20,-580 -20,-18 -20,-17 -20,580 0,597 0,598 20,580 20,-18 20,-31 20,-580 z m 700,-7 c 0,-600 0,-601 -20,-583 -20,18 -20,31 -20,582 0,548 3,603 30,603 6,0 10,-222 10,-602 z m 930,8 v -551 l -25,-30 -24,-30 -1,604 v 604 l 25,-23 25,-23 z m 690,-8 c -1,-532 -2,-601 -15,-584 -13,17 -15,104 -15,591 0,547 2,595 27,595 2,0 3,-271 3,-602 z m 930,2 c 0,-544 0,-557 -20,-575 -20,-18 -20,-17 -20,581 1,597 1,599 20,575 19,-22 20,-41 20,-581 z m -2651,8 v -473 l -45,87 c -49,98 -92,201 -135,327 l -28,83 34,89 c 51,132 94,227 133,297 20,34 38,62 39,62 2,0 3,-213 2,-472 z m -1629,0 -1,-463 -31,60 c -47,91 -101,219 -138,327 l -33,97 27,78 c 28,78 161,363 171,363 3,0 5,-208 5,-462 z m 810,0 c -1,-434 -2,-461 -17,-433 -53,97 -173,414 -173,457 0,43 167,438 186,438 2,0 4,-208 4,-462 z m 1170,319 c 27,-56 65,-151 86,-210 l 37,-108 -38,-102 c -44,-120 -126,-305 -149,-338 -15,-22 -16,9 -16,441 0,527 -7,500 80,317 z m 1270,-319 c 0,-433 -1,-461 -17,-439 -22,32 -112,243 -153,359 l -33,93 18,57 c 36,115 164,392 181,392 2,0 4,-208 4,-462 z m 810,0 c 0,-463 0,-463 -19,-431 -27,43 -121,260 -156,356 l -27,78 37,107 c 35,101 149,352 160,352 3,0 5,-208 5,-462 z m -4880,0 c -1,-318 -4,-448 -11,-435 -24,41 -114,259 -145,353 l -34,101 24,69 c 45,133 149,364 163,364 2,0 3,-204 3,-452 z m 354,342 c 24,-47 63,-136 86,-198 42,-108 43,-116 32,-159 -21,-76 -82,-233 -132,-338 l -48,-100 -1,455 c 0,314 2,450 10,440 5,-8 29,-53 53,-100 z m 805,12 c 27,-53 69,-154 95,-224 l 46,-127 -49,-128 c -26,-70 -71,-175 -99,-233 l -50,-105 -1,458 c -1,251 1,457 4,457 3,0 27,-44 54,-98 z m 2090,-354 -1,-453 -54,110 c -81,166 -138,327 -130,367 16,79 163,428 181,428 3,0 5,-204 4,-452 z m 391,263 c 26,-58 58,-136 71,-174 l 24,-67 -33,-98 c -36,-103 -105,-271 -140,-337 l -21,-40 v 455 l -1,455 27,-44 c 14,-24 47,-92 73,-150 z m 775,77 c 29,-62 70,-158 90,-213 l 37,-100 -22,-70 c -30,-95 -115,-310 -145,-365 l -24,-45 -1,453 c 0,248 3,452 6,452 3,0 29,-51 59,-112 z m -2420,-31 c 23,-51 59,-136 79,-190 l 37,-98 -31,-90 c -35,-102 -106,-274 -138,-334 l -21,-40 -1,445 c 0,502 -6,479 75,307 z m 3256,-15 c 21,-46 54,-125 74,-177 l 35,-93 -40,-116 c -40,-117 -124,-313 -141,-331 -5,-5 -9,165 -9,430 v 440 l 22,-35 c 11,-19 38,-72 59,-118 z m -3041,-567 c 65,-164 157,-310 228,-358 89,-62 156,-71 237,-33 104,49 194,179 302,436 11,24 12,23 34,-30 153,-367 316,-497 496,-394 88,50 195,210 264,392 13,34 26,62 29,62 3,0 16,-28 29,-62 77,-202 180,-350 283,-405 46,-24 151,-24 198,1 87,47 189,192 267,379 l 36,88 32,-78 c 130,-321 283,-458 446,-399 87,31 170,127 250,290 l 49,101 v -303 -302 h -2805 -2805 v 292 292 l 44,-86 c 103,-203 208,-298 327,-298 73,0 179,76 247,175 30,44 107,202 128,263 10,28 21,52 25,52 3,0 20,-38 38,-84 67,-173 169,-320 255,-371 178,-104 347,31 496,397 l 23,57 46,-107 c 152,-352 331,-465 510,-322 74,58 169,213 232,377 13,34 24,61 25,60 1,-1 16,-38 34,-82 z m 360,-1870 v -1185 h -1370 c -1088,0 -1372,3 -1375,13 -2,6 -12,59 -22,117 -15,94 -17,215 -20,1173 l -4,1067 h 1396 1395 z m 1831,750 c 24,-9 54,-26 68,-38 28,-26 71,-112 71,-144 0,-21 3,-21 133,-19 81,1 140,7 154,14 39,22 80,15 104,-17 12,-16 39,-37 60,-46 149,-68 111,-236 -89,-398 -37,-29 -76,-59 -87,-65 -50,-28 -51,-26 19,-111 142,-175 175,-323 91,-402 -61,-58 -112,-71 -255,-65 -139,5 -250,29 -412,90 l -97,36 -83,-86 c -157,-165 -308,-263 -437,-286 -118,-20 -195,22 -244,132 -15,34 -20,69 -21,147 l -1,102 -50,6 c -197,24 -282,73 -292,167 -10,89 97,231 252,334 30,20 55,38 55,40 0,2 -21,34 -46,71 -59,86 -81,134 -89,199 -18,132 60,201 240,211 59,4 96,11 107,20 28,25 69,19 98,-14 19,-21 43,-33 84,-42 32,-7 81,-21 109,-30 l 51,-18 86,67 c 174,137 311,184 421,145 z m 929,-1962 c -1,-24 -45,-203 -80,-324 -162,-561 -487,-1120 -874,-1504 -424,-421 -986,-748 -1489,-865 -71,-16.00001 -267,-50.00001 -292,-50.00001 -3,0 -5,619.00001 -5,1375.00001 v 1375 h 1370 c 754,0 1370,-3 1370,-7 z m -3412,-198 c 60,-25 112,-111 112,-189 0,-55 7,-58 111,-52 52,2 113,8 136,11 40,7 44,5 60,-24 10,-17 30,-36 46,-42 15,-6 41,-27 57,-46 51,-58 38,-152 -35,-247 -28,-36 -125,-124 -173,-156 l -23,-15 55,-65 c 82,-96 128,-188 133,-269 6,-86 -17,-124 -102,-165 -54,-26 -69,-29 -165,-28 -119,0 -222,21 -392,78 l -106,37 -30,-34 c -61,-70 -79,-89 -152,-155 -226,-203 -432,-259 -541,-144 -48,50 -64,111 -63,233 l 1,97 h -51 c -113,1 -244,53 -283,112 -31,47 -29,96 6,166 33,65 133,165 231,232 l 61,41 -36,47 c -84,111 -125,221 -111,295 9,47 57,92 125,118 49,19 70,21 173,16 93,-4 120,-2 129,9 20,25 68,17 99,-17 19,-20 55,-39 104,-55 l 76,-26 67,58 c 193,164 362,226 481,179 z m -2118,-475 c 31,-16 40,-26 40,-46 0,-14 8,-39 17,-55 21,-35 53,-39 53,-7 0,21 1,21 16,6 14,-14 15,-21 5,-46 -23,-54 11,-106 46,-71 11,11 23,-12 47,-101 15,-51 35,-210 36,-272 v -27 l -32,19 c -18,10 -53,22 -78,26 l -45,7 46,-50 c 51,-55 67,-104 50,-160 -11,-37 -6,-41 21,-16 19,17 19,16 12,-12 -4,-17 -8,-31 -10,-33 -1,-2 -26,13 -54,32 -64,44 -149,70 -201,62 -33,-5 -38,-3 -41,15 -2,12 -14,29 -27,38 l -24,16 5,-42 6,-41 -61,-39 c -34,-21 -64,-39 -68,-41 -9,-4 -90.99996,136 -123.99996,212 -26,60 -75,217 -75,243 0,10 12,7 48,-13 91,-53 193.99996,-128 225.99996,-166 40,-46 61,-50 52,-10 -17,73 -18,210 -2,292 21,102 11,120 -33,57 -17,-25 -45,-57 -62,-71 -29,-24 -33,-25 -49,-11 -21,19 -29.99996,19 -29.99996,0 0,-8 5.99996,-15 12.99996,-15 22,-1 -15.99996,-17 -54.99996,-24 -57,-10 -105,2 -112,28 -8,32 20,154 45,190 11,17 18,23 15,13 -3,-11 -9,-31 -12,-45 -4,-23 -2,-22 15,9 28,50 93,106 137.99996,118 51,15 91,14 146,-3 41,-12 48,-12 59,1 18,22 -12,41 -76,49 -35,5 -45,9 -31,14 26,9 96,-5 145,-30 z m 5689,20 c -56,-10 -89,-26 -89,-45 0,-21 20,-23 70,-8 93,29 190,-1 247,-75 17,-23 33,-36 35,-30 8,23 40,-77 45,-138 l 6,-62 -31,-7 c -36,-7 -120,3 -128,16 -3,5 0,9 5,9 16,0 13,27 -3,33 -9,4 -17,-2 -21,-14 -4,-10 -10,-19 -14,-19 -10,0 -84,80 -105,114 -31,49 -39,18 -20,-80 16,-86 15,-214 -2,-286 -10,-42 8,-35 73,30 54,54 228,170 239,159 7,-7 -22,-120 -48,-187 -21,-55 -107,-218 -133,-254 -13,-17 -17,-16 -78,24 l -64,42 15,30 c 23,48 0,58 -40,18 -29,-29 -39,-33 -89,-35 -41,-1 -74,-9 -118,-31 -34,-17 -63,-28 -65,-25 -3,3 -7,23 -11,43 -10,51 9,99 57,147 40,39 41,41 17,41 -34,-1 -97,-25 -120,-46 -18,-17 -19,-16 -19,22 0,112 33,295 67,374 14,34 15,34 24,13 5,-14 17,-23 29,-23 14,0 20,7 22,23 2,41 -3,72 -15,79 -9,5 -5,14 11,30 l 22,22 v -27 c 0,-59 62,-11 65,50 1,34 5,39 50,60 35,16 67,22 105,22 l 55,-1 z m -6168.99996,-493 c 64,-256 281.99996,-585 609.99996,-921 452,-463 1200,-826.00001 1960,-950.00001 259,-42 369,-50 685,-50 388,1 625,27 960,109 470,114 861,283.00001 1243,537.00001 247,165 359,260 540,458 340,371 514,675 538,935 l 7,73 161,-162 c 88,-89 204,-202 257,-251 82,-77 98,-97 109,-138 17,-64 9,-88 -75,-223 -338,-539 -815,-1014.00001 -1352,-1348.00001 -561,-348 -1208,-568.999999 -1878,-640.999999 -446,-49 -825,-35 -1270,45 C 1954.1925,272.35359 739.19254,1070.3536 287.19254,2010.3536 c -42,87 -55,125 -55,160 1,78 9,88 214,271 58,52 155,143 215,204 l 110,110 8,-60 c 4,-33 17,-95 27,-138 z m 907.99996,-103 c 61,-104 193,-296 277,-399 107,-134 102,-118 65,-210 -58,-147 -235,-455 -261,-455 -36,0 -429,355 -429,387 0,7 15,34 33,60 39,55 98,162 117,213 8,19 17,37 22,40 14,10 47,162 57,268 10,95 3,236 -15,320 -3,15 16,-13 43,-63 27,-49 68,-122 91,-161 z m 4821,106 c -11,-102 -6,-198 17,-325 18,-98 33,-145 45,-145 5,0 9,-6 9,-13 0,-20 86,-184 125,-239 l 36,-49 -42,-50 c -82,-99 -363,-339 -395,-339 -29,0 -232,363 -269,481 l -18,56 85,104 c 115,142 251,338 338,492 40,70 75,126 76,124 2,-2 -1,-45 -7,-97 z m 103,-363 c -16,-18 -17,-18 -23,5 -4,12 -7,33 -8,46 -1,23 0,23 23,-5 23,-26 23,-29 8,-46 z m -5251,-4 c 27,-14 57,-36 69,-48 19,-20 19,-24 6,-64 -18,-49 -78,-160 -117,-214 l -28,-38 -93,118 c -96,120 -138,177 -138,186 0,12 80,64 125,79 61,22 111,17 176,-19 z m 5564,7 c 22,-11 53,-30 68,-43 l 29,-22 -74,-96 c -40,-53 -94,-119 -119,-148 l -46,-52 -25,33 c -35,47 -95,156 -113,208 -17,50 -11,62 53,102 84,52 147,57 227,18 z m -4551,-575 c 438,-370 927,-622 1398,-719.00001 226,-47 330,-45 581,10 511,112.00001 1082,436.00001 1525,865.00001 l 93,91 17,-44 c 31,-83 131,-274 191,-366 34,-51 61,-95 61,-96 0,-2 -56,-41 -125,-86 -455,-298.00001 -1046,-499.00001 -1680,-571.00001 -167,-19 -676,-16 -853,5 -544,65 -1041,224 -1497,479.00001 -78,44 -225,137 -248,156 -4,4 23,52 59,107 65,99 187,335 200,387 6,27 7,27 106,-65 56,-51 133,-120 172,-153 z m -2349.999963,88 c 98.000003,-154 367.000003,-685 353.000003,-699 -3,-3 -23,-3 -45,1 -39,6 -40,7 -46,57 -9,64 -43,102 -83,92 -37,-9 -38,-11 -23,-29 7,-8 25,-15 41,-15 39,0 44,-14 19,-58 -16,-29 -31,-41 -61,-49 -36,-9 -39,-9 -39,9 0,11 -15,35 -34,54 -26,26 -42.000003,34 -70.000003,34 -20,0 -36,4 -36,9 0,5 -3,17 -7,27 -5,14 -1,13 25,-6 38,-28 62.000003,-21 62.000003,20 0,44 -44.000003,83 -87.000003,78 -18,-2 -33,-2 -33,2 0,3 -3,15 -6,28 -5,17 -2,22 13,22 28,0 43,20 43,57 0,43 -49,99 -100,114 -38.999997,12 -39.999997,13 -76.999997,105 -7,19 43.999997,25 78.999997,11 18,-8 66,-45 106,-82 106.000003,-98 137.000003,-170 92.000003,-215 -24,-24 -18,-26 15,-4 94,61 19,223 -186.000003,404 l -77.999997,69 31.999997,10 c 30,9 62,17 80,20 4,0 27,-29 51,-66 z m 8174.999963,45 c 24,-8 20,-13 -76,-103 -127,-119 -194,-214 -201,-285 -4,-46 -2,-54 24,-81 31,-32 58,-41 29,-9 -43,47 -12,113 98,216 84,78 129,101 164,85 l 23,-11 -24,-49 c -17,-33 -33,-51 -51,-55 -14,-4 -44,-23 -66,-43 -36,-32 -40,-41 -37,-76 3,-37 8,-44 46,-64 2,-1 1,-11 -3,-22 -4,-15 -15,-21 -35,-21 -41,0 -90,-44 -90,-81 0,-35 21,-46 56,-31 19,10 24,9 24,-3 0,-10 -10,-15 -31,-15 -43,0 -104,-60 -95,-94 l 6,-24.00001 -46,17.00001 c -48,19 -91,69 -81,95 3,8 21,16 39,18 43,4 51,33 11,41 -39,8 -70,-29 -79,-91 l -6,-48 -49,-11 c -35,-7 -49,-6 -49,1 0,6 51,117 113,246 108,224 195,385 258,477 27,39 31,41 67,36 20,-3 48,-10 61,-15 z m -742,-442 c 44,-13 118,-32 164,-41 132,-26 123,-15 83,-103 -49,-105 -84,-198.00001 -84,-222.00001 0,-25 25,-26 94,-5 62,19 169,19 204,1 59,-31 92,-92 92,-170 0,-56 -30,-101 -87,-129 -143,-72 -335,-59 -650,45 -121,40 -385,164 -389,183 -2,6 34,39 79,75 45,36 153,137.00001 242,226.00001 88,89 163,162 166,163 3,0 42,-10 86,-23 z m -6671.99996,-112 c 72,-70 189.99996,-176 262.99996,-235.00001 154,-126 156,-106 -18,-187 -206.99996,-97 -513.99996,-182 -656.99996,-182 -139,0 -255,45 -289,112 -39.000003,76 -5,192 67,228 47,24 140,26 219,5 30,-8 57,-15 60,-15 3,0 11,13 18,30 13,27 10,37 -47,156.00001 -34,70 -59,129 -57,131 3,3 53,15 113,28 87,19 198,49 198,54 0,1 59,-56 130,-125 z m -708,-242.00001 c -23.000003,-25 -30.000003,-20 -42.000003,36 l -7,32.00001 35,-22 35.000003,-23.00001 z m 7961.99996,14 -11,-38 -23,22 -24,23 32,16 c 18,10.00001 33,17.00001 34,16.00001 1,-1 -2,-18.00001 -8,-39.00001 z"
           id="path1-4"
           style="fill:#ffffff;fill-opacity:1" /><path
           d="m 3693.1925,10743.354 c -4,-3 0,-11 9,-17 12,-9 14,-29 12,-96 l -3,-84 -60,92 c -60,92 -75,103 -119,86 -14,-5 -14,-8 -1,-27 11,-16 15,-52 15,-149 0,-110 -2,-128 -17,-137 -25,-14 -14,-19 29,-14 37,5 37,6 17,22 -18,15 -20,26 -17,126 l 3,110 80,-122 c 44,-68 83,-123 88,-123 4,0 7,71 7,158 0,110 4,162 12,170 9,9 5,12 -18,12 -17,0 -34,-3 -37,-7 z"
           id="path2-8"
           style="fill:#ffffff;fill-opacity:1" /><path
           d="m 3833.1925,10733.354 c -11,-13 -17,-36 -17,-67 0,-45 4,-52 61,-111 53,-55 60,-67 57,-97 -2,-26 -8,-34 -26,-36 -24,-4 -72,31 -72,52 -1,6 -7,25 -15,41 -13,29 -13,29 -14,-32 -1,-47 2,-61 12,-57 7,2 29,-2 50,-11 55,-23 103,1 108,55 6,68 0,84 -60,140 -32,30 -60,62 -63,70 -8,24 10,60 30,60 24,0 61,-39 72,-76 7,-26 8,-23 9,21 1,41 -2,51 -16,53 -10,1 -36,4 -58,8 -32,4 -44,2 -58,-13 z"
           id="path3-2"
           style="fill:#ffffff;fill-opacity:1" /><path
           d="m 3356.1925,10683.354 c -52,-13 -114,-30 -136,-36 l -41,-11 -33,-113 c -18,-62 -36,-113 -40,-113 -3,0 -21,47 -40,104 -25,79 -37,103 -49,100 -72,-13 -76,-15 -58,-25 15,-9 17,-27 17,-149 0,-122 -2,-140 -17,-149 -26,-14 -14,-19 31,-13 39,5 39,5 17,21 -21,16 -22,23 -19,141 l 3,125 45,-132 c 24,-73 47,-133 50,-133 4,0 26,68 50,150 24,83 45,150 47,150 1,0 3,-58 3,-129 0,-110 -3,-132 -17,-147 -17,-16 -15,-17 36,-11 29,3 58,10 65,15 6,6 54,19 107,31 l 97,22 6,37 c 10,61 6,69 -13,32 -24,-44 -48,-67 -83,-75 l -28,-7 v 77 c 0,67 2,76 17,73 10,-2 23,-14 30,-28 11,-22 13,-18 12,45 0,67 0,69 -13,39 -8,-17 -21,-34 -30,-37 -14,-6 -16,3 -16,63 v 69 l 34,7 c 40,7 54,1 66,-30 7,-17 9,-13 9,22 1,23 -2,42 -6,41 -5,0 -51,-12 -103,-26 z m -62,-181 c 2,-133 1,-142 -18,-152 -11,-6 -25,-8 -30,-5 -6,4 -10,63 -10,137 0,109 3,135 17,150 32,35 38,16 41,-130 z"
           id="path4-0"
           style="fill:#ffffff;fill-opacity:1" /><path
           d="m 3746.1925,10131.354 c -21,-6 -22,-8 -7,-14 15,-6 17,-22 17,-148.0004 0,-122 -3,-145 -17,-162 -17,-19 -17,-19 2,-14 11,3 43,8 70,12 42,6 46,9 28,16 -22,8 -23,12 -23,153 0,128.0004 2,146.0004 18,155.0004 13,8 9,10 -23,10 -22,-1 -51,-4 -65,-8 z"
           id="path5-7"
           style="fill:#ffffff;fill-opacity:1" /><path
           d="m 3593.1925,10106.354 c -4,-11 -14,-12 -41,-6 -89,20 -166,-72 -166,-198.0004 0,-136 69,-185 180,-129 43,21 45,24 48,72 2,28 11,58 20,69 15,17 15,19 1,14 -9,-4 -37,-10 -63,-13 -42,-7 -66,-25 -31,-25 11,0 15,-12 15,-49 0,-56 -15,-74 -57,-69 -40,4 -56,57 -51,171 3,68.0004 9,93.0004 25,115.0004 36,48 76,40 115,-23 l 18,-30 v 58 c 0,58 -3,69 -13,43 z"
           id="path6"
           style="fill:#ffffff;fill-opacity:1" /><path
           d="m 3162.1925,10033.354 c -3,-10 -24,-83.0004 -46,-163.0004 -23,-80 -49,-154 -58,-164 -16,-18 -16,-19 8,-13 14,4 34,7 44,7 19,0 19,1 1,13 -14,11 -16,21 -11,49 5,30 12,37 37,42 52,10 58,7 67,-26 7,-25 5,-37 -7,-52 -15,-17 -15,-18 4,-13 11,3 36,8 56,11 l 37,6 -17,33 c -9,17 -34,89 -56,159 -22,70 -43,128.0004 -47,128.0004 -4,0 -9,-8 -12,-17 z m 9,-145.0004 c 16,-57 11,-68 -33,-68 -18,0 -22,4 -18,18 2,9 10,36 17,60 7,23 14,42 15,42 2,0 10,-23 19,-52 z"
           id="path7"
           style="fill:#ffffff;fill-opacity:1" /><path
           d="m 4367.1925,10713.354 1,-48 14,32 c 12,28 40,53 58,53 3,0 6,-66 6,-146 0,-128 -2,-148 -17,-160 -16,-12 -10,-13 45,-14 58,0 80,11 47,24 -21,8 -23,296 -2,296 17,0 43,-28 56,-60 9,-22 10,-19 10,23 l 1,47 h -110 -110 z"
           id="path8"
           style="fill:#ffffff;fill-opacity:1" /><path
           d="m 4761.1925,10613.354 c -53,-172 -54,-175 -72,-195 -15,-17 -14,-18 23,-17 21,0 33,3 27,6 -7,2 -13,15 -13,28 0,44 10,55 51,55 33,0 41,-4 49,-26 15,-39 12,-64 -7,-65 -26,-2 36,-16 75,-18 31,-1 32,0 18,22 -8,12 -35,89 -61,172 -25,82 -47,151 -50,153 -2,2 -20,-50 -40,-115 z m 49,-86 c 7,-28 6,-29 -26,-22 -18,4 -34,8 -35,9 -2,2 4,27 13,57 l 17,54 12,-35 c 6,-19 15,-48 19,-63 z"
           id="path9"
           style="fill:#ffffff;fill-opacity:1" /><path
           d="m 5006.1925,10618.354 1,-53 17,35 c 11,22 26,36 40,38 22,3 22,3 22,-142 0,-125 -2,-146 -17,-154 -15,-9 -14,-10 3,-15 10,-3 39,-9 63,-12 42,-7 44,-6 28,10 -14,14 -17,39 -17,161 0,137 1,144 18,135 26,-14 42,-35 52,-68 7,-24 8,-21 9,23 l 1,52 -92,17 c -51,9 -101,18 -110,21 -16,5 -18,-2 -18,-48 z"
           id="path10"
           style="fill:#ffffff;fill-opacity:1" /><path
           d="m 4586.1925,10131.354 c -99,-53 -115,-258.0004 -25,-317.0004 40,-26 103,-13 142,29 76,83 67,249.0004 -16,291.0004 -39,21 -59,20 -101,-3 z m 90,-36 c 19,-39 20,-188.0004 1,-233.0004 -19,-45 -45,-58 -76,-38 -30,20 -38,61 -34,169 5,100.0004 25,140.0004 67,135.0004 18,-2 32,-13 42,-33 z"
           id="path11"
           style="fill:#ffffff;fill-opacity:1" /><path
           d="m 4419.1925,10132.354 c -6,-4 -27,-58 -46,-121 -18,-63.0004 -36,-110.0004 -39,-105.0004 -3,5 -20,53 -37,107.0004 -32,96 -33,97 -64,97 -40,0 -66,-14 -43,-23 14,-5 16,-28 16,-146.0004 0,-123 -2,-141 -17,-150 -25,-14 -14,-19 29,-14 37,5 37,6 17,22 -18,15 -20,26 -17,141 l 3,125.0004 44,-137.0004 c 24,-76 47,-138 50,-138 3,0 26,69 51,153 l 45,152.0004 3,-129.0004 c 2,-111 0,-131 -15,-148 -17,-19 -16,-19 37,-12 64,8 71,12 47,25 -15,9 -17,27 -17,144 0,108.0004 3,137.0004 16,149.0004 14,15 12,16 -18,16 -18,0 -38,-4 -45,-8 z"
           id="path12"
           style="fill:#ffffff;fill-opacity:1" /><path
           d="m 4769.1925,10099.354 c 24,-34 25,-264.0004 1,-290.0004 -15,-16 -11,-18 53,-23 37,-4 122,-18 188,-31 66,-13 120,-23 121,-22 1,1 5,25 9,52 l 7,50 -24,-35 c -20,-29 -30,-35 -58,-35 h -35 l -3,73 c -2,39 1,72 6,72 14,0 32,-25 42,-57 6,-21 8,-5 9,57 0,82 0,84 -14,53 -8,-18 -21,-33 -30,-33 -12,0 -15,13 -15,70.0004 0,39 2,70 4,70 27,0 70,-28 82,-54 l 13,-31.0004 1,41.0004 v 41 l -67,12 c -38,7 -79,15 -92,18 -24,6 -24,5 -8,-18 14,-19 17,-48 17,-145.0004 0,-125 -4,-154 -22,-154 -7,0 -8,20 -5,53 6,52 6,52 -8,20 -18,-40 -57,-67 -85,-58 -19,6 -20,14 -20,150 0,127.0004 2,145.0004 18,154.0004 15,9 13,10 -9,11 -15,0 -41,3 -59,7 l -33,6 z"
           id="path13"
           style="fill:#ffffff;fill-opacity:1" /><path
           d="m 5154.1925,10048.354 c 8,-8 12,-57.0004 12,-153.0004 0,-96 -4,-145 -12,-153 -9,-9 -4,-12 23,-12 28,1 31,2 17,11 -16,9 -18,26 -17,137 l 1,127.0004 36,-145.0004 36,-145 13,44 c 7,25 15,61 18,80 3,27 3,30 -3,11 -11,-34 -16,-22 -42,95 -13,55.0004 -28,103.0004 -34,107.0004 -6,4 -22,8 -35,8 -20,0 -22,-3 -13,-12 z"
           id="path14"
           style="fill:#ffffff;fill-opacity:1" /><path
           d="m 5308.1925,9989.3536 c -16,-66 -14,-85 3,-34 12,38 13,32 14,-87 1,-75 -3,-129 -9,-133 -22,-14 -8,-25 32,-25 33,0 39,3 30,12 -8,8 -12,57 -12,153 0,96 4,145.0004 12,153.0004 9,9 4,12 -23,12 -34,0 -36,-2 -47,-51.0004 z"
           id="path15"
           style="fill:#ffffff;fill-opacity:1" /><path
           d="m 5287.1925,9894.3536 c 0,-11 3,-14 6,-6 3,7 2,16 -1,19 -3,4 -6,-2 -5,-13 z"
           id="path16"
           style="fill:#ffffff;fill-opacity:1" /><path
           d="m 2722.1925,5945.3536 c -13,-14 -27,-38 -31,-52 -3,-15 -17,-40 -31,-56 -17,-21 -24,-40 -24,-73 0,-24 -4,-44 -10,-44 -5,0 -10,9 -10,20 0,12 -8,33 -18,48 -11,15 -31,46 -45,69 -29,45 -68,64 -96,46 -9,-5 -35,-43 -58,-84 -34,-60 -42,-84 -42,-126 -1,-29 4,-53 9,-53 14,0 13,-114 -2,-161 l -11,-39 h -103 c -130,0 -315,-37 -372,-75 -69,-46 -123,-138 -142,-246 -6,-35 -23,-123 -37,-196 l -26,-132 -38,-15 c -22,-9 -72,-21 -111,-27 -95,-15 -122,-45 -78,-89 17,-17 34,-20 107,-21 l 88,-2 -55,-9 c -94,-16 -99,-18 -109,-37 -27,-49 19,-81 115,-81 30,0 54,-3 54,-7 0,-5 4,-45 10,-90 22,-197 112,-282 316,-300 57,-4 86,-1 142,16 85,26 98,48 53,96 -16,16 -32,45 -36,63 -7,36 -11,37 -51,18 -28,-14 -64,-19 -111,-17 -13,1 -37,14 -55,30 -31,28 -32,31 -36,125 -4,87 -3,96 14,102 48,15 86,36 122,69 58,51 86,48 144,-19 47,-54 48,-56 68,-178 26,-161 26,-187 -5,-228 -65,-89 -26,-173 105,-227 64,-26 203,-25 247,2 49,29 61,68 38,124 -36,91 -29,255 16,376 l 20,53 172,-5 172,-5 32,-37 c 55,-62 85,-128 90,-195 5,-58 4,-63 -20,-79 -32,-21 -49,-76 -36,-119 23,-80 104,-118 253,-118 160,0 181,31 145,212 -21,103 -21,111 -6,201 9,52 30,135 46,183 17,49 35,109 41,133 l 12,44 40,-69 c 66,-114 127,-164 143,-115 3,10 -4,40 -15,66 -12,27 -37,103 -56,169 -82,281 -210,462 -384,545 -30,14 -56,29 -58,34 -2,4 -10,7 -18,7 -10,0 -14,14 -14,53 0,31 -6,61 -15,73 -9,12 -14,43 -15,83 0,52 3,62 15,57 12,-4 15,6 15,59 0,54 -4,68 -21,83 -11,9 -27,33 -35,52 -46,108 -114,105 -164,-7 -10,-24 -23,-43 -29,-43 -6,0 -15,-15 -20,-32 -9,-31 -9,-30 -10,20 -1,42 -6,56 -25,73 -13,12 -27,31 -30,44 -7,27 -70,85 -92,85 -8,0 -26,-11 -38,-25 z m 68,-47 c 23,-33 20,-38 -24,-38 h -41 l 16,30 c 19,36 29,37 49,8 z m -282,-55 c 27,-24 23,-30 -22,-35 -45,-4 -47,-2 -24,30 18,26 22,27 46,5 z m 564,0 c 21,-27 17,-33 -21,-33 -38,0 -40,2 -25,31 13,24 29,24 46,2 z m -279,-33 c 6,-24 43,-27 43,-4 0,14 3,14 15,4 8,-7 15,-23 15,-35 0,-23 -4,-24 -87,-27 -49,-2 -92,0 -97,4 -13,10 2,58 19,58 8,0 15,-4 15,-10 0,-19 28,-10 33,10 3,11 13,20 22,20 9,0 19,-9 22,-20 z m -277,-65 c 0,-18 5,-25 20,-25 14,0 20,7 20,21 0,11 5,17 10,14 6,-3 10,-19 10,-36 v -29 h -86 -85 l 3,32 c 3,35 28,52 28,19 0,-14 6,-21 20,-21 15,0 20,7 20,25 0,18 5,25 20,25 15,0 20,-7 20,-25 z m 560,0 c 0,-16 6,-25 15,-25 8,0 15,9 15,20 0,11 4,20 8,20 15,0 32,-24 32,-47 0,-22 -3,-23 -95,-23 -93,0 -95,0 -95,24 0,13 7,29 15,36 13,10 15,9 15,-9 0,-14 6,-21 20,-21 15,0 20,7 20,25 0,20 5,25 25,25 20,0 25,-5 25,-25 z m -240,-120 v -85 h -65 -65 v 85 85 h 65 65 z m -302,29 c 20,-6 22,-13 22,-65 v -59 h -70 -70 v 59 60 l 38,4 c 20,2 42,4 47,5 6,1 20,-1 33,-4 z m 112,-14 c 0,-13 -7,-20 -20,-20 -22,0 -23,1 -14,24 9,23 34,20 34,-4 z m 280,16 c 0,-2 3,-11 6,-20 5,-12 0,-16 -20,-16 -19,0 -26,5 -26,20 0,13 7,20 20,20 11,0 20,-2 20,-4 z m 168,-2 c 20,-6 22,-13 22,-65 v -59 h -65 -65 v 59 60 l 33,4 c 17,2 37,4 42,5 6,1 20,-1 33,-4 z m -448,-164 c 0,-11 -7,-20 -15,-20 -8,0 -15,2 -15,4 0,2 -3,11 -6,20 -4,12 0,16 15,16 14,0 21,-6 21,-20 z m 194,10 c 22,-8 26,-16 26,-47 v -38 l -95,3 c -91,3 -95,4 -95,26 0,25 18,51 40,59 25,9 97,8 124,-3 z m 96,3 c 0,-5 -5,-15 -10,-23 -9,-13 -11,-13 -20,0 -15,22 -12,30 10,30 11,0 20,-3 20,-7 z m -366,-29 c 9,-8 16,-28 16,-43 v -27 l -90,1 h -90 v 31 c 0,16 5,35 12,42 18,18 133,15 152,-4 z m 560,0 c 9,-8 16,-28 16,-42 v -27 h -95 -95 v 27 c 0,44 23,58 95,58 44,0 68,-5 79,-16 z m -768,-85 c 9,-16 -12,-27 -71,-34 -27,-4 -64,-14 -81,-21 -17,-8 -60,-18 -95,-22 l -64,-8 42,-22 c 23,-12 51,-22 63,-22 11,0 20,-7 20,-15 0,-19 37,-19 84,0 50,21 46,36 -9,28 -38,-5 -44,-3 -40,9 8,20 64,36 104,30 95,-14 134,-218 68,-353 -15,-31 -54,-85 -86,-120 l -60,-64 -33,72 c -33,74 -50,86 -56,42 -4,-24 -36,-67 -106,-143 -20,-21 -34,-41 -31,-44 5,-5 73,28 141,69 31,19 31,19 52,-6 12,-14 29,-25 38,-25 29,0 130,115 168,190 20,40 37,82 37,94 1,15 3,13 9,-9 4,-16 8,-103 9,-192 1,-138 3,-163 16,-163 30,0 14,-19 -25,-31 -38,-12 -47,-19 -34,-31 7,-8 104,18 117,31 6,6 28,11 49,11 35,0 38,-2 38,-29 0,-22 6,-32 23,-37 l 22,-8 -25,-6 c -32,-8 -56,-50 -80,-146 -26,-101 -29,-267 -6,-312 28,-55 16,-102 -26,-102 -10,0 -21,7 -24,15 -8,21 -30,19 -47,-5 -16,-23 -27,-17 -27,16 0,23 -25,40 -36,23 -3,-6 -3,-21 0,-35 5,-17 2,-24 -8,-24 -10,0 -16,13 -18,38 -4,43 -29,51 -38,12 -5,-22 -7,-23 -13,-7 -13,35 -7,57 30,98 36,40 36,41 41,143 4,81 0,119 -16,184 -30,116 -84,246 -105,250 -23,5 -21,-15 8,-83 35,-77 71,-207 79,-280 10,-80 -6,-145 -49,-201 -19,-25 -35,-56 -35,-70 0,-32 -16,-30 -33,4 -16,31 -14,40 25,101 32,50 31,44 1,234 -8,54 -13,106 -10,116 3,11 -18,41 -60,87 l -65,69 33,27 c 39,33 34,35 -23,9 -24,-11 -60,-23 -81,-26 -25,-4 -54,-20 -80,-44 -23,-21 -52,-43 -64,-50 -41,-21 -43,-11 -5,23 37,33 82,106 97,154 6,20 4,21 -17,12 -25,-10 -139,-32 -144,-27 -2,2 13,38 33,81 31,64 35,79 23,86 -19,12 -47,-34 -91,-147 -26,-67 -40,-88 -67,-105 -18,-11 -36,-18 -39,-14 -8,8 25,230 42,279 8,23 15,60 15,82 1,133 72,270 163,314 94,46 413,82 433,50 z m 120,-74 c 20,-48 51,-186 59,-263 5,-52 3,-63 -10,-68 -9,-4 -18,-4 -22,-1 -3,3 -9,44 -15,91 -5,46 -18,115 -29,153 -32,107 -34,123 -15,123 10,0 23,-15 32,-35 z m 198,-24 25,-45 16,42 c 10,23 21,42 25,42 5,0 19,-18 32,-41 l 22,-40 16,46 16,47 26,-48 26,-48 17,42 c 10,23 21,42 25,42 5,0 19,-18 32,-41 l 23,-41 21,48 21,48 29,-49 28,-49 13,43 c 7,24 14,46 17,48 8,8 48,-69 62,-120 8,-28 17,-102 21,-163 6,-107 5,-113 -20,-154 l -26,-44 -16,42 c -10,23 -21,42 -25,42 -4,0 -15,-19 -25,-42 l -16,-42 -29,49 -29,49 -16,-42 c -10,-23 -20,-42 -24,-42 -4,0 -13,16 -20,35 -7,19 -16,35 -21,35 -5,0 -19,-19 -31,-42 l -22,-43 -23,50 -22,50 -18,-42 c -9,-24 -21,-43 -25,-43 -5,0 -18,19 -30,43 l -22,42 -22,-48 -23,-48 -27,48 -28,47 -22,-50 -22,-49 -11,40 c -5,22 -13,84 -16,137 -3,54 -11,126 -17,161 -11,61 -6,137 9,137 4,0 16,-16 26,-35 11,-19 22,-35 26,-35 5,0 15,19 24,41 9,23 19,40 21,38 2,-2 15,-24 29,-48 z m 690,-82 c 115,-105 188,-235 250,-444 19,-66 34,-121 32,-122 -1,-2 -27,47 -57,107 -66,135 -81,139 -91,28 -4,-45 -22,-122 -42,-182 -64,-190 -78,-316 -51,-431 18,-73 19,-127 3,-143 -18,-18 -35,-15 -41,8 -6,24 -32,26 -41,3 -6,-14 -9,-14 -22,6 -13,18 -18,20 -31,9 -12,-10 -18,-8 -32,11 -15,20 -21,22 -39,12 -12,-7 -22,-16 -22,-21 0,-6 -4,-10 -10,-10 -19,0 -10,38 19,74 35,44 45,96 36,184 -9,88 -30,165 -64,237 -50,105 -51,99 34,119 73,17 75,18 82,54 4,20 8,138 7,262 0,178 -3,235 -16,272 l -16,47 28,-14 c 15,-8 53,-38 84,-66 z m -130,4 c 11,-50 25,-177 26,-224 0,-32 -5,-49 -15,-52 -20,-8 -22,-3 -29,88 -4,44 -11,107 -16,139 -5,32 -7,63 -4,67 11,18 33,8 38,-18 z m -694,-438 c 0,-19 -4,-35 -10,-35 -5,0 -10,16 -10,35 0,19 5,35 10,35 6,0 10,-16 10,-35 z m 138,15 c 29,0 32,-3 32,-30 0,-30 -1,-30 -55,-30 h -55 v 36 c 0,33 2,36 23,30 12,-3 37,-6 55,-6 z m 530,-32 c -3,-29 -6,-33 -33,-33 -27,0 -30,4 -33,33 -3,31 -2,32 33,32 35,0 36,-1 33,-32 z m -358,-8 c 0,-28 -2,-30 -40,-30 -38,0 -40,2 -40,30 0,28 2,30 40,30 38,0 40,-2 40,-30 z m 140,0 c 0,-28 -2,-30 -40,-30 -38,0 -40,2 -40,30 0,28 2,30 40,30 38,0 40,-2 40,-30 z m 98,3 c -2,-22 -8,-28 -28,-28 -20,0 -26,6 -28,28 -3,24 0,27 28,27 28,0 31,-3 28,-27 z m -1420,-35 c -4,-27 -31,-36 -120,-37 -83,-1 -97,14 -22,24 31,4 72,13 92,20 51,19 54,18 50,-7 z m 232,-28 c 0,-31 -76,-86 -148,-109 -66,-20 -117,-26 -200,-23 -53,2 -47,22 7,22 82,0 186,44 271,115 33,28 45,33 56,24 8,-6 14,-20 14,-29 z m 745,-60 c 3,-5 1,-10 -4,-10 -6,0 -11,5 -11,10 0,6 2,10 4,10 3,0 8,-4 11,-10 z m 441,-25 c 4,-14 3,-29 0,-33 -4,-3 -49,-8 -101,-10 l -95,-4 v 30 c 0,30 1,31 53,35 135,9 136,9 143,-18 z m -276,-15 c 0,-23 -4,-30 -20,-30 -16,0 -20,7 -20,30 0,23 4,30 20,30 16,0 20,-7 20,-30 z m -956,-283 c 35,-52 116,-76 194,-59 32,8 42,7 42,-3 0,-7 9,-24 20,-38 l 20,-25 -37,-13 c -48,-17 -142,-16 -210,0 -123,30 -184,117 -191,274 l -4,87 h 26 c 24,0 26,-4 26,-39 0,-152 75,-281 164,-281 38,0 32,13 -17,32 -58,25 -99,108 -105,219 -4,71 -3,77 19,93 l 24,16 5,-117 c 4,-92 10,-124 24,-146 z m 1271,211 c 32,-46 59,-159 59,-253 1,-86 -1,-93 -27,-124 -15,-19 -31,-47 -34,-64 -6,-28 -7,-29 -20,-12 -23,33 -16,72 18,97 l 31,23 -4,86 c -4,91 -22,138 -79,210 -16,20 -29,39 -29,42 0,3 12,8 28,10 15,2 30,5 34,6 4,0 14,-9 23,-21 z"
           id="path17"
           style="fill:#ffffff;fill-opacity:1" /><path
           d="m 2756.1925,5626.3536 c 0,-50 2,-56 21,-56 18,0 20,5 17,52 -2,41 -7,54 -20,56 -15,3 -18,-5 -18,-52 z"
           id="path18"
           style="fill:#ffffff;fill-opacity:1" /><path
           d="m 2476.1925,5605.3536 c 0,-28 4,-35 20,-35 16,0 20,7 20,35 0,28 -4,35 -20,35 -16,0 -20,-7 -20,-35 z"
           id="path19"
           style="fill:#ffffff;fill-opacity:1" /><path
           d="m 3036.1925,5605.3536 c 0,-24 5,-35 15,-35 10,0 15,11 15,35 0,24 -5,35 -15,35 -10,0 -15,-11 -15,-35 z"
           id="path20"
           style="fill:#ffffff;fill-opacity:1" /><path
           d="m 1878.1925,5117.3536 c -23,-24 -29,-47 -13,-47 5,0 11,7 15,15 3,9 18,15 39,15 19,0 40,6 46,13 28,35 -55,38 -87,4 z"
           id="path21"
           style="fill:#ffffff;fill-opacity:1" /><path
           d="m 1896.1925,5072.3536 c -23,-20 -39,-82 -21,-82 17,0 65,26 79,43 29,34 -22,68 -58,39 z"
           id="path22"
           style="fill:#ffffff;fill-opacity:1" /><path
           d="m 2156.1925,5058.3536 c 1,-17 79,-100 90,-96 17,6 -51,108 -71,108 -10,0 -19,-6 -19,-12 z"
           id="path23"
           style="fill:#ffffff;fill-opacity:1" /><path
           d="m 2053.1925,5025.3536 c -15,-19 -44,-44 -65,-55 -45,-23 -32,-26 30,-5 49,17 104,67 94,84 -12,19 -30,12 -59,-24 z"
           id="path24"
           style="fill:#ffffff;fill-opacity:1" /><path
           d="m 3390.1925,4990.3536 c -8,-8 -7,-25 2,-59 28,-109 27,-250 -2,-325 -5,-13 -4,-17 4,-13 20,13 44,150 44,252 0,125 -17,176 -48,145 z"
           id="path25"
           style="fill:#ffffff;fill-opacity:1" /><path
           d="m 5725.1925,5605.3536 c -19,-7 -55,-23 -80,-35 -49,-25 -189,-127 -189,-138 0,-9 105,-52 128,-52 10,0 67,11 127,25 61,13 144,30 186,36 l 77,11 -10,36 c -14,53 -48,99 -85,117 -38,18 -105,18 -154,0 z"
           id="path26"
           style="fill:#ffffff;fill-opacity:1" /><path
           d="m 4831.1925,5464.3536 c -22,-8 -51,-26 -64,-41 -49,-56 -6,-185 108,-325 4,-4 77,28 163,71 153,75 160,80 227,157 l 69,79 -36,13 c -21,7 -63,19 -94,26 -53,13 -58,13 -74,-5 -27,-30 -77,-25 -107,11 -24,28 -31,30 -89,29 -35,0 -81,-7 -103,-15 z"
           id="path27"
           style="fill:#ffffff;fill-opacity:1" /><path
           d="m 6085.1925,5403.3536 -46,-4 -7,-72 c -4,-39 -14,-98 -22,-131 l -16,-60 26,-19 c 14,-10 61,-47 103,-83 43,-35 82,-64 88,-64 42,0 240,173 275,240 29,54 30,89 4,120 -32,37 -58,45 -86,26 -36,-25 -73,-20 -102,15 -24,28 -32,31 -99,34 -39,1 -93,1 -118,-2 z"
           id="path28"
           style="fill:#ffffff;fill-opacity:1" /><path
           d="m 5911.1925,5384.3536 c -11,-2 -70,-14 -132,-26 l -112,-22 71,-38 c 39,-21 101,-59 139,-83 l 68,-44 11,52 c 6,28 14,78 17,109 6,63 4,65 -62,52 z"
           id="path29"
           style="fill:#ffffff;fill-opacity:1" /><path
           d="m 5370.1925,5358.3536 c -63,-73 -65,-70 25,-40 45,14 81,29 81,32 0,6 -60,30 -76,30 -6,0 -19,-10 -30,-22 z"
           id="path30"
           style="fill:#ffffff;fill-opacity:1" /><path
           d="m 5431.1925,5266.3536 c -201,-68 -197,-65 -252,-148 -58,-86 -113,-181 -113,-195 0,-13 166,-131 289,-206 112,-68 110,-68 286,-9 l 110,37 38,66 c 33,59 36,70 26,93 -16,35 3,79 44,98 23,11 37,28 49,61 19,53 23,47 -77,112 -68,44 -243,135 -259,135 -6,0 -69,-20 -141,-44 z m 94,-154 c 20,-38 -31,-71 -59,-37 -6,8 -9,23 -5,35 8,25 51,27 64,2 z m 110,-41 c 13,-24 -8,-55 -34,-50 -28,6 -42,34 -26,53 18,22 48,20 60,-3 z m -201,-33 c 30,-30 -4,-77 -41,-57 -29,17 -15,69 18,69 6,0 16,-5 23,-12 z m 110,-40 c 2,-19 -2,-28 -18,-33 -24,-8 -50,10 -50,35 0,24 10,31 40,28 19,-2 26,-10 28,-30 z m 70,-37 c 8,-4 12,-19 10,-32 -4,-29 -45,-34 -61,-7 -19,30 19,60 51,39 z m -113,-51 c 0,-32 -42,-41 -62,-14 -17,24 2,46 36,42 20,-2 26,-9 26,-28 z"
           id="path31"
           style="fill:#ffffff;fill-opacity:1" /><path
           d="m 5014.1925,5092.3536 -88,-48 44,-43 43,-43 38,69 c 21,37 45,78 53,91 20,31 9,28 -90,-26 z"
           id="path32"
           style="fill:#ffffff;fill-opacity:1" /><path
           d="m 5957.1925,5030.3536 c -9,-32 -9,-48 0,-75 11,-28 10,-37 -5,-59 -9,-15 -30,-29 -45,-32 -19,-4 -33,-17 -45,-40 -9,-19 -16,-37 -16,-39 0,-6 119,48 218,98 45,23 81,46 79,52 -4,12 -155,135 -166,135 -4,0 -13,-18 -20,-40 z"
           id="path33"
           style="fill:#ffffff;fill-opacity:1" /><path
           d="m 4814.1925,4973.3536 c -91,-60 -176,-140 -208,-196 -48,-84 -39,-122 38,-161 41,-21 156,-46 210,-46 16,0 23,13 36,68 10,37 35,112 57,166 l 40,100 -53,53 c -29,29 -55,53 -58,53 -3,0 -31,-17 -62,-37 z"
           id="path34"
           style="fill:#ffffff;fill-opacity:1" /><path
           d="m 6113.1925,4842.3536 c -37,-21 -125,-63 -195,-93 -128,-54 -128,-54 -176,-121 -26,-36 -48,-70 -48,-75 0,-4 42,-23 94,-41 286,-103 533,-110 594,-18 34,53 4,164 -69,261 -44,58 -109,125 -122,125 -5,0 -40,-18 -78,-38 z"
           id="path35"
           style="fill:#ffffff;fill-opacity:1" /><path
           d="m 5017.1925,4823.3536 c -23,-46 -86,-242 -79,-248 8,-8 209,14 327,36 l 113,22 -33,20 c -70,42 -196,126 -251,166 l -57,42 z"
           id="path36"
           style="fill:#ffffff;fill-opacity:1" /><path
           d="m 5612.1925,4636.3536 -69,-22 41,-18 c 46,-21 55,-17 85,33 10,17 17,31 15,30 -2,-1 -34,-11 -72,-23 z"
           id="path37"
           style="fill:#ffffff;fill-opacity:1" /><path
           d="m 5356.1925,4569.3536 c -77,-18 -242,-44 -362,-54 l -67,-7 -7,-35 c -9,-48 1,-150 20,-193 8,-20 26,-48 41,-62 93,-93 327,8 540,233 l 68,72 -64,33 c -74,38 -70,38 -169,13 z"
           id="path38"
           style="fill:#ffffff;fill-opacity:1" /><path
           d="m 5576.1925,3601.3536 c -17,-16 -45,-33 -62,-36 -18,-4 -55,-16 -81,-26 -26,-11 -58,-19 -71,-19 -15,0 -26,-7 -29,-19 -3,-12 -25,-26 -58,-39 -48,-18 -55,-24 -65,-58 -10,-35 -14,-39 -47,-42 l -37,-3 v 76 c 0,71 -2,79 -28,105 -20,19 -44,31 -75,35 -92,14 -137,-15 -144,-92 -4,-41 -10,-53 -29,-64 -30,-15 -62,-80 -70,-141 -10,-73 3,-134 38,-173 l 30,-35 -22,-27 c -18,-23 -21,-39 -19,-111 2,-82 2,-84 35,-110 34,-27 34,-28 34,-110 0,-75 -3,-87 -27,-119 -25,-33 -28,-44 -28,-121 0,-80 1,-85 28,-106 41,-33 37,-70 -10,-93 -58,-28 -86,-89 -80,-175 3,-53 10,-75 31,-102 17,-23 26,-47 26,-72 0,-29 7,-43 35,-70 l 35,-33 v -126 c 0,-166 3,-169 149,-144 75,14 121,49 121,94 0,23 3,26 23,21 12,-3 28,-6 35,-6 7,0 12,-8 11,-17 -3,-33 1,-43 16,-43 9,0 18,-7 21,-15 6,-15 44,-22 44,-7 0,4 15,8 34,9 46,2 160,48 226,92 39,25 58,46 66,69 8,26 21,38 60,56 28,13 67,38 88,57 l 39,33 -7,78 c -7,89 1,101 53,74 16,-9 41,-16 55,-16 20,0 26,6 31,33 12,74 25,260 25,374 0,115 2,124 26,160 22,33 25,46 22,96 -4,56 -3,59 24,73 41,21 61,67 55,128 -4,45 -10,55 -53,95 -27,24 -64,50 -83,58 l -34,14 7,87 c 5,68 3,92 -8,108 -8,11 -20,43 -27,70 -7,27 -18,61 -25,76 -8,15 -14,38 -14,51 0,14 -7,30 -15,37 -8,7 -15,24 -15,39 0,14 -9,40 -19,57 -21,34 -41,40 -149,43 -57,2 -65,0 -92,-28 z m 204,-43 c 24,-34 20,-63 -9,-76 -38,-17 -39,-16 -14,24 22,36 22,37 4,50 -17,12 -22,11 -46,-12 -24,-23 -30,-24 -50,-14 l -23,13 23,18 c 33,27 95,25 115,-3 z m -718,-42 c 15,-12 20,-30 24,-102 l 5,-88 31,-8 c 52,-13 76,-48 72,-104 -3,-44 -7,-51 -40,-73 l -38,-24 v -143 -142 l -27,-6 c -42,-11 -107,-61 -139,-107 l -29,-43 -5,77 c -5,74 -6,78 -37,97 -32,19 -33,22 -33,85 0,57 3,69 25,90 13,14 29,25 35,25 5,0 10,20 10,45 0,39 5,49 49,93 42,42 49,55 53,98 3,33 1,53 -9,60 -7,6 -13,20 -13,30 0,12 -15,26 -40,38 -32,15 -40,25 -40,45 0,48 25,71 79,71 26,0 56,-6 67,-14 z m 549,-5 c 43,-20 81,-56 68,-64 -10,-6 -127,-37 -139,-37 -5,0 -2,5 6,10 13,9 12,12 -5,25 -17,14 -21,13 -34,0 -13,-13 -13,-16 4,-30 19,-14 19,-14 -5,-14 -20,0 -29,9 -46,45 -20,43 -21,45 -3,54 17,9 81,27 104,29 6,0 28,-8 50,-18 z m -186,-49 c 11,-16 23,-41 27,-56 3,-15 12,-30 18,-32 20,-7 238,52 292,79 51,26 82,23 71,-6 -8,-20 -150,-74 -264,-100 -85,-19 -92,-23 -95,-46 -2,-15 -10,-27 -20,-29 -16,-3 -24,18 -33,87 -5,36 -32,91 -45,91 -6,0 -10,9 -10,20 0,30 35,25 59,-8 z m -56,-40 c 22,-24 49,-162 32,-162 -7,0 -41,19 -76,43 -53,35 -65,48 -67,73 -3,27 1,33 35,46 50,21 57,21 76,0 z m 481,-69 c 24,-69 23,-72 -26,-62 -69,13 -199,10 -261,-6 -71,-18 -67,-19 -67,3 0,13 22,22 109,43 59,15 132,38 162,51 30,14 57,24 61,22 3,-2 13,-25 22,-51 z m -949,7 c -22,-23 -26,-33 -17,-42 9,-9 19,-7 41,10 17,12 32,18 35,13 3,-4 -8,-18 -24,-30 -33,-24 -40,-51 -13,-51 9,0 25,7 35,17 17,15 18,15 18,-3 0,-21 -67,-94 -87,-94 -8,0 -13,-13 -13,-37 v -37 l -21,20 c -66,66 -29,264 49,264 h 26 z m 379,-75 c 23,-19 59,-41 79,-50 20,-8 37,-17 37,-18 0,-2 -18,-22 -40,-46 -38,-41 -42,-43 -78,-34 l -37,9 -6,71 c -3,39 -11,78 -18,87 -26,31 19,18 63,-19 z m 544,-147 69,-12 7,-80 c 3,-45 6,-118 6,-162 v -81 l -32,-7 c -38,-7 -110,-80 -135,-137 -9,-21 -21,-35 -26,-32 -66,41 -232,-5 -253,-69 -8,-28 -24,-5 -24,37 -1,64 -8,73 -64,80 -76,10 -186,-17 -290,-70 -107,-55 -127,-56 -91,-3 14,20 25,39 25,42 0,3 -16,2 -36,-1 -33,-6 -35,-4 -26,13 43,79 136,144 208,144 66,1 163,26 202,54 21,14 43,26 50,26 7,0 12,10 12,21 0,16 -5,20 -20,16 -26,-7 -26,12 0,63 40,79 107,135 190,161 39,11 152,10 228,-3 z m -576,-39 38,-10 -20,-39 c -31,-61 -51,-147 -40,-175 5,-14 6,-25 1,-25 -5,0 -23,-3 -40,-6 l -31,-6 v 125 c 0,109 2,127 18,136 22,13 29,13 74,0 z m 770,-130 c 55,-47 69,-89 44,-137 -16,-30 -34,-42 -66,-42 -26,0 -31,-24 -14,-65 20,-49 5,-100 -43,-147 -65,-61 -92,-69 -149,-42 -39,19 -46,15 -50,-22 -8,-73 -132,-114 -240,-79 -17,5 -23,1 -34,-25 -18,-43 -52,-67 -116,-80 -40,-9 -63,-9 -89,0 -23,8 -45,8 -69,2 -28,-8 -38,-7 -47,5 -10,12 -10,16 2,24 8,5 22,9 32,9 13,0 17,8 17,34 0,48 32,83 92,101 70,21 120,19 150,-5 27,-21 38,-18 38,11 0,10 12,31 26,48 46,56 159,72 209,31 20,-16 42,-2 49,32 13,67 86,140 150,150 13,2 25,19 36,53 21,64 58,76 51,18 -3,-20 17,-15 29,7 16,30 4,55 -46,96 -24,20 -44,43 -44,50 0,26 35,14 82,-27 z m -628,-355 c 16,-41 8,-50 -61,-64 -81,-15 -114,-31 -141,-65 -11,-14 -23,-25 -26,-25 -4,0 -6,30 -4,68 l 3,67 50,17 c 66,23 171,24 179,2 z m -456,-36 c -2,-7 -9,-18 -17,-24 -9,-7 -11,-19 -6,-33 5,-17 10,-20 18,-12 6,6 25,11 43,11 18,0 58,14 89,30 l 57,30 -2,-122 c -1,-68 -2,-157 -1,-198 1,-65 3,-73 15,-57 24,31 39,-4 37,-81 -3,-98 -24,-114 -88,-64 -28,20 -51,28 -97,32 l -61,5 -3,146 c -2,144 -3,146 -27,157 -44,20 -47,122 -4,168 24,26 51,32 47,12 z m 1002,-87 c 0,-32 -3,-38 -17,-35 -24,5 -89,-49 -79,-65 5,-7 15,-10 25,-7 11,4 10,1 -4,-9 -60,-43 -60,-43 -47,-56 10,-11 18,-10 45,5 l 32,18 -27,-24 c -15,-13 -37,-30 -50,-39 -19,-14 -20,-19 -10,-32 10,-12 10,-16 -3,-21 -8,-3 -15,-13 -15,-22 0,-13 6,-15 31,-10 30,6 30,5 -18,-39 -26,-24 -56,-47 -66,-51 -14,-4 -18,-13 -14,-30 4,-21 -3,-27 -49,-49 -30,-14 -54,-30 -54,-35 0,-5 -7,-7 -17,-3 -15,6 -16,-4 -10,-109 5,-116 5,-116 -21,-141 -29,-28 -106,-69 -171,-92 -39,-13 -41,-13 -41,5 0,22 -20,26 -38,8 -20,-20 -23,-3 -6,33 21,42 53,79 70,79 28,0 32,87 9,177 -8,32 -18,94 -21,138 -8,96 1,120 73,186 26,24 47,47 45,52 -1,4 3,7 8,7 7,0 8,13 4,34 l -6,34 41,-5 c 53,-7 158,14 193,38 14,11 29,32 33,49 6,26 9,28 31,19 37,-14 65,-11 104,10 19,10 36,19 38,20 1,0 2,-17 2,-38 z m 0,-81 c 0,-13 -5,-18 -15,-14 -12,5 -13,10 -4,20 15,19 19,18 19,-6 z m 0,-40 c 0,-5 -5,-10 -11,-10 -5,0 -7,5 -4,10 3,6 8,10 11,10 2,0 4,-4 4,-10 z m -12,-160 c -5,-63 -13,-119 -17,-123 -4,-4 -26,1 -48,11 l -40,18 48,52 c 47,51 62,93 39,107 -6,4 -3,16 6,31 9,13 18,23 19,22 1,-2 -2,-55 -7,-118 z m -697,82 c -15,-28 -39,-45 -56,-38 -26,10 -16,35 18,45 46,13 49,13 38,-7 z m 139,-34 c -46,-63 -51,-97 -35,-218 7,-58 17,-114 21,-125 5,-14 -2,-10 -23,12 -36,39 -70,53 -124,53 -21,0 -39,5 -39,10 0,6 4,10 10,10 24,0 42,63 39,140 -3,72 -1,79 25,111 23,27 38,35 75,40 87,11 84,13 51,-33 z m -490,-28 c 0,-11 -9,-29 -20,-40 -11,-11 -20,-31 -20,-44 0,-13 -5,-26 -11,-28 -9,-3 -9,-14 0,-41 7,-21 10,-46 6,-55 -12,-31 -34,28 -35,91 0,61 18,109 47,126 26,15 33,13 33,-9 z m -3,-102 c -3,-8 -6,-5 -6,6 -1,11 2,17 5,13 3,-3 4,-12 1,-19 z m 33,-58 c 9,-16 17,-18 59,-13 40,4 56,1 85,-16 34,-21 90,-79 97,-100 3,-8 15,-7 41,1 75,23 155,-53 144,-137 -7,-54 -60,-105 -112,-105 -62,0 -120,43 -130,97 -5,28 -10,33 -34,33 -18,0 -47,15 -77,38 -64,52 -76,67 -77,105 -1,17 -11,48 -24,67 -12,19 -22,38 -22,43 0,16 40,6 50,-13 z m 858,-107 c -3,-54 -5,-59 -43,-85 -22,-15 -52,-30 -67,-34 l -28,-6 v 59 59 l 63,30 c 34,17 66,31 70,32 4,1 7,-24 5,-55 z m -891,9 c -4,-53 87,-150 157,-168 14,-3 28,-16 32,-27 4,-12 18,-36 31,-54 55,-71 8,-125 -114,-131 l -76,-4 7,23 c 4,13 10,74 13,135 5,105 4,113 -15,123 -37,19 -52,42 -52,75 0,28 6,46 16,46 2,0 2,-8 1,-18 z"
           id="path39"
           style="fill:#ffffff;fill-opacity:1" /><path
           d="m 5873.1925,2718.3536 c -23,-18 -67,-79 -67,-95 0,-7 7,-13 16,-13 12,0 15,-6 10,-26 -6,-23 -5,-25 16,-19 13,4 40,23 61,43 42,41 52,94 20,106 -10,3 -23,8 -28,11 -6,3 -18,0 -28,-7 z m 40,-44 c 5,-14 -31,-64 -48,-64 -19,0 -18,35 2,57 26,27 37,29 46,7 z"
           id="path40"
           style="fill:#ffffff;fill-opacity:1" /><path
           d="m 5571.1925,2561.3536 c -11,-5 -29,-18 -39,-30 -19,-21 -19,-22 -1,-35 11,-8 15,-18 10,-26 -11,-18 101,-5 132,16 26,17 30,39 8,48 -8,3 -15,12 -15,21 0,17 -59,20 -95,6 z m 79,-37 c 8,-21 9,-20 -41,-29 -39,-6 -43,-5 -43,13 0,31 73,44 84,16 z"
           id="path41"
           style="fill:#ffffff;fill-opacity:1" /><path
           d="m 5308.1925,2467.3536 c -27,-6 -50,-19 -59,-34 -15,-23 -15,-26 5,-46 26,-26 85,-27 132,-2 33,17 51,46 32,53 -7,2 -12,12 -12,23 0,22 -26,23 -98,6 z m 68,-37 c 0,-13 -48,-32 -68,-28 -25,5 -25,26 0,31 43,8 68,7 68,-3 z"
           id="path42"
           style="fill:#ffffff;fill-opacity:1" /><path
           d="m 4983.1925,2000.3536 c 4,-15 0,-20 -16,-20 -45,0 -16,-47 57,-92 33,-20 56,-18 34,4 -7,7 -12,18 -12,25 0,19 31,16 46,-4 12,-17 13,-16 14,4 0,13 -17,36 -47,62 -53,45 -84,54 -76,21 z m 47,-39 c 3,-5 -1,-14 -8,-20 -16,-13 -32,2 -21,19 8,12 22,13 29,1 z"
           id="path43"
           style="fill:#ffffff;fill-opacity:1" /><path
           d="m 5186.1925,1897.3536 c -18,-9 -25,-21 -25,-42 0,-22 -4,-30 -17,-29 -10,1 -18,-5 -18,-13 0,-23 56,-73 82,-73 28,0 64,23 79,51 16,30 -6,86 -41,104 -34,18 -29,18 -60,2 z m 54,-43 c 31,-30 13,-74 -30,-74 -29,0 -38,14 -19,30 9,8 13,21 9,36 -7,29 15,33 40,8 z"
           id="path44"
           style="fill:#ffffff;fill-opacity:1" /><path
           d="m 3215.1925,3442.3536 c -79,-29 -222,-124 -273,-180 -18,-21 -18,-21 40,-47 l 58,-25 125,24 c 69,14 165,31 212,37 l 87,12 -5,41 c -7,57 -43,129 -73,143 -35,17 -116,15 -171,-5 z"
           id="path45"
           style="fill:#ffffff;fill-opacity:1" /><path
           d="m 2291.1925,3284.3536 c -22,-8 -51,-26 -64,-41 -20,-23 -22,-34 -18,-74 7,-57 43,-131 100,-204 l 41,-54 71,38 c 38,22 114,58 168,81 89,40 102,49 157,114 33,38 57,73 53,77 -5,3 -32,14 -61,24 -47,15 -55,15 -70,3 -9,-8 -25,-18 -35,-21 -24,-9 -74,17 -82,42 -3,10 -16,22 -28,25 -41,11 -192,5 -232,-10 z"
           id="path46"
           style="fill:#ffffff;fill-opacity:1" /><path
           d="m 3396.1925,3194.3536 c -8,-1 -62,-10 -119,-19 -157,-25 -157,-25 -68,-72 41,-23 103,-60 138,-83 34,-22 64,-39 66,-36 9,9 43,152 43,184 0,33 -10,37 -60,26 z"
           id="path47"
           style="fill:#ffffff;fill-opacity:1" /><path
           d="m 3516.1925,3173.3536 c 0,-24 -30,-162 -45,-214 -5,-14 53,-68 167,-158 16,-12 25,-8 75,29 114,87 183,176 183,239 0,43 -9,60 -39,75 -22,12 -29,12 -46,0 -10,-8 -31,-14 -45,-14 -29,0 -70,33 -70,55 0,12 -18,15 -90,15 h -90 z"
           id="path48"
           style="fill:#ffffff;fill-opacity:1" /><path
           d="m 2831.1925,3152.3536 c -21,-25 -25,-34 -12,-29 10,4 43,14 74,23 55,16 56,17 32,30 -38,21 -62,15 -94,-24 z"
           id="path49"
           style="fill:#ffffff;fill-opacity:1" /><path
           d="m 2864.1925,3073.3536 -138,-46 -58,-86 c -32,-47 -73,-113 -91,-145 l -33,-59 23,-19 c 53,-40 219,-148 298,-193 l 85,-47 127,42 c 70,23 134,49 141,58 8,9 27,38 42,65 21,37 25,55 20,81 -9,49 3,76 42,92 31,13 64,63 64,98 0,26 -318,206 -362,206 -13,-1 -85,-21 -160,-47 z m 93,-143 c 25,-14 24,-46 -2,-60 -37,-20 -67,28 -37,58 15,15 15,15 39,2 z m 110,-49 c -15,-27 -47,-27 -62,1 -10,18 -8,24 11,40 23,19 24,19 43,0 16,-16 17,-23 8,-41 z m -163,-23 c 30,-30 -4,-77 -41,-57 -29,17 -15,69 18,69 6,0 16,-5 23,-12 z m 102,-23 c 20,-24 3,-57 -28,-53 -27,3 -39,26 -28,54 7,18 40,18 56,-1 z m 94,-11 c 9,-8 16,-19 16,-24 0,-16 -33,-41 -47,-36 -8,3 -17,6 -19,6 -9,0 -3,47 8,58 16,16 23,15 42,-4 z m -144,-73 c 11,-21 -9,-51 -34,-51 -21,0 -38,27 -31,50 8,26 51,27 65,1 z m 88,-3 c 30,-30 0,-78 -37,-58 -32,17 -21,70 14,70 6,0 16,-5 23,-12 z"
           id="path50"
           style="fill:#ffffff;fill-opacity:1" /><path
           d="m 2496.1925,2921.3536 c -52,-26 -94,-52 -94,-57 3,-15 97,-90 100,-79 2,6 27,48 54,94 28,46 50,86 50,88 0,8 -21,-1 -110,-46 z"
           id="path51"
           style="fill:#ffffff;fill-opacity:1" /><path
           d="m 3423.1925,2840.3536 c -12,-31 -13,-48 -6,-70 14,-39 -11,-89 -50,-96 -25,-5 -60,-49 -48,-60 4,-5 235,109 261,129 17,13 14,17 -53,73 -40,32 -76,60 -80,62 -4,1 -15,-16 -24,-38 z"
           id="path52"
           style="fill:#ffffff;fill-opacity:1" /><path
           d="m 2276.1925,2794.3536 c -147,-99 -240,-207 -240,-280 0,-67 120,-124 264,-124 h 52 l 13,53 c 8,28 34,103 58,165 25,63 41,117 37,121 -5,4 -34,30 -64,58 l -55,51 z"
           id="path53"
           style="fill:#ffffff;fill-opacity:1" /><path
           d="m 3567.1925,2667.3536 c -40,-22 -126,-64 -190,-93 -110,-50 -119,-56 -163,-116 -26,-35 -46,-67 -45,-72 4,-12 117,-51 242,-83 74,-18 126,-25 200,-25 110,0 153,12 194,56 21,22 23,32 18,79 -3,30 -15,74 -28,98 -25,49 -95,143 -130,175 l -24,21 z"
           id="path54"
           style="fill:#ffffff;fill-opacity:1" /><path
           d="m 2493.1925,2621.3536 c -28,-60 -77,-203 -77,-220 0,-6 19,-11 43,-11 90,1 397,55 397,70 0,4 -14,13 -31,20 -17,8 -93,55 -169,105 l -138,93 z"
           id="path55"
           style="fill:#ffffff;fill-opacity:1" /><path
           d="m 3101.1925,2464.3536 c -22,-8 -47,-17 -55,-20 -10,-4 -5,-10 19,-20 18,-8 35,-14 36,-14 6,0 47,61 44,64 -2,2 -22,-3 -44,-10 z"
           id="path56"
           style="fill:#ffffff;fill-opacity:1" /><path
           d="m 2811.1925,2384.3536 c -118,-28 -295,-54 -364,-54 h -49 l -7,-72 c -11,-124 25,-225 87,-247 93,-32 210,9 363,130 62,49 215,203 215,216 0,12 -102,53 -125,52 -11,-1 -65,-12 -120,-25 z"
           id="path57"
           style="fill:#ffffff;fill-opacity:1" /><path
           d="m 1239.1925,2914.3536 c -17,-9 -39,-24 -48,-34 -15,-17 -14,-17 23,-7 48,13 86,3 118,-28 28,-29 29,-27 8,25 -15,37 -39,60 -61,60 -4,0 -22,-8 -40,-16 z"
           id="path58"
           style="fill:#ffffff;fill-opacity:1" /><path
           d="m 991.19254,2889.3536 c -12,-18 5,-60 27.99996,-68 47,-18 76,28 39,62 -21,19 -57,22 -66.99996,6 z"
           id="path59"
           style="fill:#ffffff;fill-opacity:1" /><path
           d="m 889.19254,2824.3536 c -7,-19 14,-68 38,-90 15,-14 24,-16 37,-8 26,17 25,38 -2,71 -30,36 -65,48 -73,27 z"
           id="path60"
           style="fill:#ffffff;fill-opacity:1" /><path
           d="m 1232.1925,2832.3536 c -12,-19 -46,-245 -46,-300 0,-97 36,-182 77,-182 9,0 7,6 -6,19 -29,29 -35,95 -17,200 16,93 30,133 63,183 25,40 9,82 -34,86 -17,2 -34,-1 -37,-6 z"
           id="path61"
           style="fill:#ffffff;fill-opacity:1" /><path
           d="m 1395.1925,2730.3536 c 45,-57 81,-144 81,-195 0,-49 15,-44 29,9 14,56 14,72 0,135 -14,69 -48,101 -106,101 h -43 z"
           id="path62"
           style="fill:#ffffff;fill-opacity:1" /><path
           d="m 1297.1925,2571.3536 c -22,-40 -8,-91 26,-91 30,0 26,97 -4,107 -6,2 -16,-5 -22,-16 z"
           id="path63"
           style="fill:#ffffff;fill-opacity:1" /><path
           d="m 990.19254,2439.3536 c -10,-17 7,-69 28.99996,-84 33,-23 67,-20 67,8 0,12 -7,32 -15,44 -17,25 -71.99996,47 -80.99996,32 z"
           id="path64"
           style="fill:#ffffff;fill-opacity:1" /><path
           d="m 6838.1925,2923.3536 c -13,-5 -35,-42 -47,-81 -7,-23 -6,-23 18,2 32,32 71,42 119,29 37,-10 38,-10 22,8 -16,18 -75,50 -91,48 -4,0 -14,-3 -21,-6 z"
           id="path65"
           style="fill:#ffffff;fill-opacity:1" /><path
           d="m 7078.1925,2888.3536 c -33,-33 1,-84 45,-67 23,8 40,50 28,68 -9,15 -58,14 -73,-1 z"
           id="path66"
           style="fill:#ffffff;fill-opacity:1" /><path
           d="m 6832.1925,2824.3536 c -12,-30 -6,-60 19,-94 30,-40 58,-161 59,-252 1,-55 -3,-72 -22,-98 -20,-27 -21,-31 -7,-28 29,5 57,53 66,110 14,87 -25,350 -55,370 -19,13 -54,9 -60,-8 z"
           id="path67"
           style="fill:#ffffff;fill-opacity:1" /><path
           d="m 7217.1925,2827.3536 c -38,-19 -68,-64 -55,-84 17,-26 32,-26 58,0 28,28 43,74 30,87 -6,6 -19,4 -33,-3 z"
           id="path68"
           style="fill:#ffffff;fill-opacity:1" /><path
           d="m 6662.1925,2746.3536 c -35,-33 -36,-35 -36,-110 0,-50 6,-90 17,-114 l 16,-37 8,61 c 8,69 43,145 90,199 l 31,35 h -45 c -38,0 -52,-6 -81,-34 z"
           id="path69"
           style="fill:#ffffff;fill-opacity:1" /><path
           d="m 6806.1925,2571.3536 c -21,-41 -6,-99 24,-88 21,8 31,53 17,83 -13,29 -27,31 -41,5 z"
           id="path70"
           style="fill:#ffffff;fill-opacity:1" /><path
           d="m 7109.1925,2435.3536 c -53,-23 -76,-95 -30,-95 28,0 51,23 67,64 14,38 3,48 -37,31 z"
           id="path71"
           style="fill:#ffffff;fill-opacity:1" /><path
           d="m 578.19254,2138.3536 c -17,-17 -15,-83 3,-98 22,-18 62,-15 85,5 24,22 26,68 4,89 -18,19 -75,21 -92,4 z"
           id="path72"
           style="fill:#ffffff;fill-opacity:1" /><path
           d="m 7470.1925,2142.3536 c -6,-4 -16,-17 -23,-29 -14,-27 -2,-55 33,-78 59,-39 130,52 78,98 -19,17 -68,22 -88,9 z"
           id="path73"
           style="fill:#ffffff;fill-opacity:1" /><path
           d="m 823.19254,2056.3536 c 4,-21 -8,-35 -89,-98 -115,-92 -121,-99 -121,-146 0,-48 22,-91 68,-131 61,-53 100,-43 227,57 94.99996,75 93.99996,75 117.99996,62 29,-16 25,-1 -15,49 l -35.99996,45 3,-34 c 3,-30 -3,-38 -57,-83 -83,-68 -145,-107 -171,-107 -38,0 -84,47 -84,85 0,36 31,69 147,158 64,49 81,55 101,35 6,-6 14,-10 16,-7 6,5 -90,132 -103,137 -5,1 -6,-8 -4,-22 z"
           id="path74"
           style="fill:#ffffff;fill-opacity:1" /><path
           d="m 7201.1925,2021.3536 c 4,-13 -2,-23 -20,-35 -55,-36 -83,-127 -52,-166 22,-29 61,-50 91,-50 16,0 58,16 93,35 72,39 102,43 126,17 25,-28 20,-60 -14,-94 -29,-29 -33,-30 -90,-25 -32,4 -59,5 -59,3 0,-2 25,-20 55,-40 47,-31 55,-33 55,-18 0,10 13,31 30,45 69,62 82,146 31,198 -41,41 -86,39 -168,-6 -73,-40 -102,-43 -128,-15 -15,17 -16,24 -6,48 16,38 52,57 107,54 24,-1 44,0 44,3 0,5 -87,65 -95,65 -3,0 -4,-8 0,-19 z"
           id="path75"
           style="fill:#ffffff;fill-opacity:1" /><path
           d="m 7002.1925,1776.3536 c -31,-35 -56,-67 -56,-72 0,-4 5,-3 12,4 26,26 45,14 226,-149 38,-34 42,-41 32,-60 -23,-42 -1,-27 61,43 35,40 55,68 44,64 -37,-15 -44,-11 -155,84 -102,86 -111,97 -106,122 3,16 4,28 2,28 -3,0 -29,-29 -60,-64 z"
           id="path76"
           style="fill:#ffffff;fill-opacity:1" /><path
           d="m 1059.1925,1729.3536 c 0,-25 -16,-46 -88.99996,-120 -104,-105 -116,-114 -144,-99 -32,17 -23,-3 18,-43 44,-43 56,-47 40,-11 -11,24 -7,30 75,112 46.99996,47 87.99996,84 89.99996,82 3,-3 -5,-87 -17,-187 -14,-113 -18,-183 -12,-183 6,0 63,52 127,115 107,107 119,115 145,109 l 29,-7 -40,42 c -45,47 -60,52 -43,16 11,-24 7,-30 -57,-95 -38,-38 -70,-68 -72,-66 -2,1 4,66 14,144 l 17,140 -35,40 c -19,22 -37,41 -40,41 -3,1 -6,-13 -6,-30 z"
           id="path77"
           style="fill:#ffffff;fill-opacity:1" /><path
           d="m 6906.1925,1648.3536 c 0,-9 -19,-29 -42,-45 -24,-16 -51,-45 -62,-66 -16,-34 -17,-42 -4,-75 8,-22 27,-44 47,-56 36,-21 65,-18 174,18 48,15 49,15 73,-9 31,-32 30,-50 -5,-86 -34,-33 -83,-39 -131,-14 -41,21 -37,8 12,-42 42,-43 65,-55 55,-29 -4,9 10,24 38,41 45,29 85,87 85,124 0,53 -57,111 -108,111 -11,0 -50,-11 -86,-25 -80,-30 -90,-31 -116,-5 -26,26 -25,46 5,75 26,27 89,34 126,15 31,-17 22,3 -21,45 -28,27 -40,34 -40,23 z"
           id="path78"
           style="fill:#ffffff;fill-opacity:1" /><path
           d="m 1364.1925,1458.3536 c 26,-26 14,-45 -149,-226 -34,-38 -41,-42 -60,-32 -42,23 -27,1 43,-61 40,-35 68,-55 64,-44 -15,37 -11,44 84,155 89,104 97,111 125,106 28,-5 25,-1 -35,54 -36,33 -69,60 -74,60 -6,0 -5,-5 2,-12 z"
           id="path79"
           style="fill:#ffffff;fill-opacity:1" /><path
           d="m 6651.1925,1414.3536 c -37,-33 -38,-35 -14,-30 31,7 45,-3 115,-88 44,-53 46,-59 24,-53 -14,3 -80,16 -146,28 l -122,22 -44,-36 c -25,-21 -48,-37 -52,-37 -7,0 -225,-147 -241,-163 -7,-7 -4,-8 8,-4 9,4 23,4 31,1 8,-3 51,-61.00001 97,-130.00001 80,-121 81,-125 64,-144 -10,-11 -15,-20 -11,-20 15,0 255,165 256,175 0,16 -34,95.00001 -42,95.00001 -3,0 -6,-20 -6,-45.00001 0,-26 -8,-57 -17,-71 -19,-29 -73,-64 -89,-58 -14,5 -78,105 -77,119 1,6 13,14 27,19 20,6.00001 32,4 55,-13 15,-11 31,-21 34,-21 3,0 -17,34 -45,75.00001 -28,41 -52,75 -54,75 -2,0 -2,-18 1,-40 7,-47 -20,-89.00001 -43,-69 -24,20 -76,108 -69,119 10,16 82,50 106,50 12,0 31,-7 41,-17 27,-24 33,-8 9,25 -27,39 -27,42 8,42 24,0 41,-15 102,-87 119,-140.00001 113,-131 100,-159.00001 -15,-33 -3,-30 49,16 l 45,39.00001 -35,-5 c -34,-5 -37,-3 -108,83 -39,48 -68,89 -62,91 5,2 84,-11 176,-28 91,-17 170,-30 175,-28 5,2 -40,63 -101,136 -94,114 -109,136 -100,153 16,28 0,23 -45,-17 z"
           id="path80"
           style="fill:#ffffff;fill-opacity:1" /><path
           d="m 1525.1925,1333.3536 c 6,-13 -5,-73 -36,-201 -25,-101 -43,-185.00001 -40,-188.00001 2,-3 75,39 161,92.00001 125,77 161,95 181,90 14,-4 25,-13 25,-20 0,-8 -32,-70 -72,-139.00001 -62,-110 -75,-126 -100,-129 -24,-3 -8,-14 105,-80 l 132,-77 38,40 c 44,46 43,58 -2,35 -16,-9 -47,-16 -68,-16 -38,0 -103,31 -103,49 0,6 16,37 36,71 30,52 38,59 54,50 24,-13 33,-43 25,-80 -4,-17 -4,-30 -1,-30 5,0 86,144 86,154 0,4 -13,-3 -29,-15 -22,-16 -36,-19 -60,-14 -17,4 -31,8 -31,10 0,14 73,125.00001 82,125.00001 7,0 29,-12 50,-26 40,-28 54,-57.00001 46,-99.00001 -3,-14 -2,-25 2,-25 6,0 50,72 50,83 0,3 -53,35.00001 -117,73.00001 -65,37 -139,82 -166,101 -54,38 -68,42 -42,13 18,-20 18,-21 -1,-39 -10,-10 -57,-42 -102,-71 -61,-37 -82,-46 -78,-33 3,10 12,47 21,83 32,130 33,133 68,126 36,-7 35,-7 -50,57 -67,51 -79,56 -64,30 z"
           id="path81"
           style="fill:#ffffff;fill-opacity:1" /><path
           d="m 6124.1925,1022.3536 c -4,-12 -22,-22 -58,-30.00001 -100,-23 -150,-84 -150,-184 0,-43 6,-64 29,-101 87,-137 287,-107 335,51 12,37 -8,25 -32,-21 -40,-76 -114,-99 -170,-53 -34,30 -88,126 -97,177 -18,97 87,148.00001 176,85 38,-26 40,-19 12,39 -29,58.00001 -38,66.00001 -45,37.00001 z"
           id="path82"
           style="fill:#ffffff;fill-opacity:1" /><path
           d="m 2089.1925,962.35359 c 10,-10 17,-24 17,-30 0,-6 -28,-69 -61,-141 -54,-114 -65,-130 -88,-133 -22,-3 -12,-10 53,-41 78,-36 101,-42 71,-17 -8,7 -15,17 -15,22 0,22 54,128 61,121 4,-4 15,-50 23,-102 8,-51 16,-94 18,-96 7,-6 88,-45 93,-45 3,0 3,5 -1,12 -4,6 -15,53 -24,105 l -17,93 h 34 c 72,0 109,85 62,144 -17,21 -213,126 -236,126 -3,0 1,-8 10,-18 z m 157,-82 c 25,-25 25,-41 0,-89 -21,-43 -40,-51 -87,-39 l -33,8 26,58 c 14,31 28,63 31,70 8,18 41,14 63,-8 z"
           id="path83"
           style="fill:#ffffff;fill-opacity:1" /><path
           d="m 5743.1925,834.35359 c -43,-19 -85,-40 -93,-49 -9,-8 -21,-15 -27,-16 -7,0 -2,-4 10,-9 27,-11 35,-49 31,-155 l -3,-80 -62,85 c -59,80 -76,120 -53,120 6,0 10,4 10,9 0,5 -35,-2 -77,-16 -69,-24 -75,-27 -53,-35 44,-15 55,-44 52,-135 -2,-46 -7,-83 -10,-83 -4,0 -24,24 -44,53 -20,28 -49,69 -65,90 -27,38 -27,39 -8,53 26,19 13,18 -67,-8 -59,-19 -66,-24 -49,-33 11,-5 69,-74 129,-153 61,-78 113,-139 115,-135 3,5 8,66 12,136 4,70 10,127 14,127 3,-1 40,-45 81,-100 41,-54 78,-99 83,-99 4,-1 7,73 7,163 0,162 9,221 32,214 9,-3 95,-191 114,-251 3,-11 -2,-27 -13,-39 -18,-20 -18,-21 6,-13 35,11 151,63 151,68 0,2 -10,2 -23,0 -13,-3 -28,1 -33,9 -16,20 -114,254 -114,272 0,8 8,19 17,25 10,5 16,11 13,14 -3,2 -40,-11 -83,-29 z"
           id="path84"
           style="fill:#ffffff;fill-opacity:1" /><path
           d="m 2441.1925,776.35359 c -35,-15 -55,-52 -55,-101 0,-26 13,-49 60,-105 33,-39 60,-75 60,-80 0,-4 -9,-19 -21,-34 -27,-34 -60,-33 -100,2 -24,22 -32,38 -38,82 l -7,55 -22,-58 c -26,-68 -27,-78 -8,-71 8,3 31,-6 53,-20 78,-51 165,-40 198,24 25,49 12,93 -44,154 -60,63 -71,85 -60,113 11,31 53,40 85,18 27,-18 54,-70 54,-107 1,-20 2,-21 11,-6 5,10 16,36 24,59 14,38 13,41 -2,35 -9,-4 -32,4 -53,18 -48,32 -97,40 -135,22 z"
           id="path85"
           style="fill:#ffffff;fill-opacity:1" /><path
           d="m 2713.1925,709.35359 22,-24 -44,-139 c -24,-77 -50,-143 -57,-147 -7,-5 -22,-6 -33,-3 -13,4 -17,3 -10,-4 8,-8 86,-36 165,-59 8,-3 4,4 -9,15 l -24,19 46,146 c 47,144 58,163 95,150 11,-4 14,-3 7,4 -5,6 -41,21 -80,33 -38,13 -77,25 -85,28 -10,3 -7,-4 7,-19 z"
           id="path86"
           style="fill:#ffffff;fill-opacity:1" /><path
           d="m 2887.1925,596.35359 c -15,-63 -14,-64 17,-28 31,37 88,54 97,30 6,-15 -46,-241 -65,-285 -7,-16 -18,-23 -36,-23 -41,0 -23,-10 58,-31 79,-20 132,-26 91,-9 -16,7 -23,18 -23,37 1,46 65,286 78,291 20,6 72,-54 72,-84 0,-40 17,-18 25,33 l 7,42 -39,10 c -124,33 -244,61 -256,61 -9,0 -19,-17 -26,-44 z"
           id="path87"
           style="fill:#ffffff;fill-opacity:1" /><path
           d="m 4949.1925,587.35359 c -78,-20 -108,-37 -63,-37 27,0 34,-18 71,-165 l 32,-128 -22,-19 c -30,-23 -13,-24 73,-3 88,23 96,27 62,34 -27,5 -31,12 -47,74 -9,37 -13,67 -9,67 5,0 40,-29 79,-65 39,-36 76,-65 82,-65 5,0 30,5 54,11 l 44,11 -47,38 c -26,21 -63,51 -82,68 l -35,30 28,27 c 35,36 37,92 4,123 -30,29 -109,28 -224,-1 z m 147,-29 c 35,-57 22,-106 -31,-123 -28,-9 -33,-1 -51,72 -17,69 -12,83 34,83 21,0 33,-8 48,-32 z"
           id="path88"
           style="fill:#ffffff;fill-opacity:1" /><path
           d="m 3286.1925,412.35359 c -46,-75 -97,-149 -111,-165 l -27,-27 24,-5 c 13,-3 35,-7 49,-10 14,-3 25,-1 25,5 0,5 -6,10 -14,10 -26,0 -28,20 -6,56 15,23 28,33 39,30 9,-2 35,-7 58,-11 42,-7 53,-20 53,-72 0,-17 -6,-23 -21,-23 -35,0 -12,-17 33,-24 24,-4 58,-9 77,-13 33,-6 33,-5 18,18 -9,13 -30,85 -47,159 -43,185 -50,210 -58,210 -4,0 -45,-62 -92,-138 z m 68,-97 c -10,-10 -88,7 -88,19 0,6 15,34 32,61 l 32,50 15,-62 c 8,-35 12,-65 9,-68 z"
           id="path89"
           style="fill:#ffffff;fill-opacity:1" /><path
           d="m 4691.1925,528.35359 c -2,-7 -20,-83 -40,-168 -20,-85 -43,-165 -51,-177 -23,-37 -23,-37 64,-17 l 27,7 -25,7 c -21,5 -25,11 -22,41 4,44 9,48 71,58 52,8 53,8 72,-23 25,-40 24,-52 -3,-59 -46,-12 -9,-16 57,-6 100,15 101,16 72,39 -14,11 -65,85 -113,165 -49,79 -93,145 -97,145 -4,0 -9,-6 -12,-12 z m 65,-219 c 0,-7 -91,-21 -97,-15 -4,3 12,79 23,116 4,10 17,-5 39,-40 19,-30 35,-58 35,-61 z"
           id="path90"
           style="fill:#ffffff;fill-opacity:1" /><path
           d="m 3610.1925,500.35359 c -34,-13 -54,-50 -54,-97 0,-35 6,-48 37,-78 20,-19 40,-35 44,-35 16,0 79,-63 79,-79 0,-34 -29,-61 -66,-61 -45,0 -90,42 -99,93 -8,43 -25,49 -25,10 0,-16 -3,-44 -6,-64 -6,-35 -5,-36 22,-36 16,0 48,-6 71,-13 77,-23 154,13 166,76 11,57 -10,92 -84,141 -71,47 -92,80 -72,111 31,49 104,25 135,-45 l 22,-48 7,40 c 4,22 8,51 8,64 1,19 -2,21 -13,12 -11,-9 -23,-8 -51,4 -41,16 -88,19 -121,5 z"
           id="path91"
           style="fill:#ffffff;fill-opacity:1" /><path
           d="m 4581.1925,500.35359 c -16,-4 -22,-8 -13,-9 9,0 20,-5 23,-11 8,-13 -46,-213 -55,-203 -9,10 -70,171 -70,185 0,6 8,17 18,24 15,12 13,13 -18,13 -19,-1 -57,-4 -85,-8 -40,-5 -45,-8 -28,-14 40,-14 45,-59 17,-148 -14,-45 -28,-79 -30,-76 -3,3 -23,49 -44,104 l -38,98 21,18 c 22,18 21,19 -33,13 -30,-3 -68,-6 -84,-6 -28,0 -28,0 -8,-17 11,-10 37,-58 57,-108 79,-193 97,-235 104,-235 4,0 24,53 45,118 21,64 42,121 46,125 4,4 29,-44 55,-108 27,-64 52,-118 56,-121 8,-4 15,17 70,219 17,65 38,125 45,132 27,26 11,31 -51,15 z"
           id="path92"
           style="fill:#ffffff;fill-opacity:1" /><path
           d="m 3978.1925,344.35359 c -45,-32 -20,-124 35,-124 42,0 79,71 55,106 -8,12 -46,34 -59,34 -5,0 -19,-7 -31,-16 z"
           id="path93"
           style="fill:#ffffff;fill-opacity:1" /><path
           d="m 1678.1925,1928.3536 c -21,-21 -15,-85 10,-108 27,-25 39,-25 72,1 33,26 34,68 3,97 -26,24 -66,29 -85,10 z"
           id="path94"
           style="fill:#ffffff;fill-opacity:1" /><path
           d="m 6368.1925,1917.3536 c -30,-32 -28,-71 4,-96 35,-27 45,-26 76,7 36,39 40,57 17,86 -26,33 -68,34 -97,3 z"
           id="path95"
           style="fill:#ffffff;fill-opacity:1" /><path
           d="m 223.19254,1302.3536 c 3,-25 -1,-50 -11,-71 -17,-31 -17,-32 6,-26 13,3 36,1 51,-4 24,-10 27,-8 27,12 0,19 -63,127 -74,127 -2,0 -2,-17 1,-38 z"
           id="path96"
           style="fill:#ffffff;fill-opacity:1" /><path
           d="m 7893.1925,1308.3536 c -33,-45 -47,-73 -47,-97 0,-18 3,-19 27,-10 15,5 38,7 51,4 22,-5 23,-5 6,20 -12,18 -15,38 -12,70 3,25 4,45 2,45 -2,0 -14,-15 -27,-32 z"
           id="path97"
           style="fill:#ffffff;fill-opacity:1" /><path
           d="m 7461.1925,1045.3536 c -30,-29 -32,-58.00001 -5,-85.00001 27,-27 62,-25 88,3 62,66.00001 -19,147.00001 -83,82.00001 z"
           id="path98"
           style="fill:#ffffff;fill-opacity:1" /><path
           d="m 582.19254,1051.3536 c -41,-45 14,-125.00001 71,-105.00001 24,8 28,16 31,51 2,33.00001 -1,44.00001 -20,57.00001 -30,21 -61,20 -82,-3 z"
           id="path99"
           style="fill:#ffffff;fill-opacity:1" /></g><text
         xml:space="preserve"
         style="font-style:normal;font-variant:normal;font-weight:normal;font-stretch:normal;font-size:23.9999px;font-family:P052;-inkscape-font-specification:'P052, Normal';font-variant-ligatures:normal;font-variant-caps:normal;font-variant-numeric:normal;font-variant-east-asian:normal;fill:#000000;fill-opacity:1;stroke-width:0.999997"
         x="156.50363"
         y="753.77765"
         id="text8-0-2"><tspan
           sodipodi:role="line"
           id="tspan8-9-4"
           x="156.50363"
           y="753.77765"
           style="stroke-width:0.999997">Supervised by Dr Matthias Caro </tspan><tspan
           sodipodi:role="line"
           x="156.50363"
           y="783.77753"
           style="stroke-width:0.999997"
           id="tspan4">3<tspan
   style="font-size:65%;baseline-shift:super"
   id="tspan6">rd</tspan> Year of Study</tspan><tspan
           sodipodi:role="line"
           x="156.50363"
           y="813.7774"
           style="stroke-width:0.999997"
           id="tspan5">Department of Computer Science, University of Warwick</tspan></text></g><text
       xml:space="preserve"
       style="font-style:normal;font-variant:normal;font-weight:bold;font-stretch:normal;font-size:11.144px;font-family:P052;-inkscape-font-specification:'P052, Bold';font-variant-ligatures:normal;font-variant-caps:normal;font-variant-numeric:normal;font-variant-east-asian:normal;text-align:start;text-anchor:start;fill:#ffffff;fill-opacity:1;stroke-width:0.79651"
       x="14.732549"
       y="28.023586"
       id="text3-1-9"><tspan
         sodipodi:role="line"
         x="14.732549"
         y="28.023586"
         style="font-style:normal;font-variant:normal;font-weight:bold;font-stretch:normal;font-size:11.144px;font-family:P052;-inkscape-font-specification:'P052, Bold';font-variant-ligatures:normal;font-variant-caps:normal;font-variant-numeric:normal;font-variant-east-asian:normal;stroke-width:0.79651"
         id="tspan3">Progress Report:</tspan><tspan
         sodipodi:role="line"
         x="14.732549"
         y="41.953587"
         style="font-style:normal;font-variant:normal;font-weight:bold;font-stretch:normal;font-size:11.144px;font-family:P052;-inkscape-font-specification:'P052, Bold';font-variant-ligatures:normal;font-variant-caps:normal;font-variant-numeric:normal;font-variant-east-asian:normal;stroke-width:0.79651"
         id="tspan1">Interactive Proofs for Resource-</tspan><tspan
         sodipodi:role="line"
         x="14.732549"
         y="55.883587"
         style="font-style:normal;font-variant:normal;font-weight:bold;font-stretch:normal;font-size:11.144px;font-family:P052;-inkscape-font-specification:'P052, Bold';font-variant-ligatures:normal;font-variant-caps:normal;font-variant-numeric:normal;font-variant-east-asian:normal;stroke-width:0.79651"
         id="tspan2">Constrained Quantum Learning</tspan></text></g><style
     type="text/css"
     id="style1">
	.st0{fill:#FFFFFF;}
</style></svg>
